M48
; DRILL file {KiCad (5.99.0-3978-g0efe073de)} date Thu Oct 22 13:19:46 2020
; FORMAT={-:-/ absolute / inch / decimal}
; #@! TF.CreationDate,2020-10-22T13:19:46-05:00
; #@! TF.GenerationSoftware,Kicad,Pcbnew,(5.99.0-3978-g0efe073de)
; #@! TF.FileFunction,Plated,1,2,PTH
FMAT,2
INCH
T1C0.0157
T2C0.0400
%
G90
G05
T1
X2.128Y-1.775
X2.4Y-2.472
X2.5Y-2.406
X2.5992Y-1.9169
X2.6181Y-2.4656
X2.622Y-2.118
T2
X0.75Y-2.85
X0.45Y-3.35
X0.65Y-3.55
X0.35Y-3.05
X0.85Y-2.95
X0.75Y-3.35
X0.75Y-3.45
X0.45Y-2.85
X0.55Y-2.95
X0.85Y-3.25
X0.45Y-3.45
X0.55Y-2.85
X0.75Y-3.55
X0.85Y-3.55
X0.85Y-3.15
X0.55Y-3.55
X0.85Y-3.05
X0.55Y-3.45
X0.65Y-3.25
X0.55Y-3.15
X0.15Y-3.55
X0.85Y-3.45
X0.35Y-3.25
X0.25Y-3.25
X0.15Y-3.35
X0.85Y-2.85
X0.65Y-2.85
X0.25Y-3.05
X0.55Y-3.25
X0.35Y-2.85
X0.45Y-3.15
X0.45Y-2.95
X0.65Y-3.35
X0.25Y-3.45
X0.15Y-3.05
X0.85Y-3.35
X0.65Y-2.95
X0.65Y-3.15
X0.45Y-3.05
X0.25Y-2.85
X0.55Y-3.35
X0.15Y-3.45
X0.35Y-3.45
X0.65Y-3.05
X0.55Y-3.05
X0.15Y-3.25
X0.25Y-3.35
X0.45Y-3.55
X0.15Y-3.15
X0.25Y-3.55
X0.25Y-3.15
X0.75Y-3.15
X0.45Y-3.25
X0.15Y-2.95
X0.35Y-3.35
X0.65Y-3.45
X0.35Y-3.15
X0.75Y-3.25
X0.15Y-2.85
X0.75Y-2.95
X0.75Y-3.05
X0.35Y-3.55
X0.25Y-2.95
X0.35Y-2.95
T0
M30
