G04 #@! TF.GenerationSoftware,KiCad,Pcbnew,(5.99.0-3978-g0efe073de)*
G04 #@! TF.CreationDate,2020-10-22T13:19:47-05:00*
G04 #@! TF.ProjectId,remoticon_badge,72656d6f-7469-4636-9f6e-5f6261646765,rev?*
G04 #@! TF.SameCoordinates,PX3072580PY307257e*
G04 #@! TF.FileFunction,Copper,L1,Top*
G04 #@! TF.FilePolarity,Positive*
%FSLAX46Y46*%
G04 Gerber Fmt 4.6, Leading zero omitted, Abs format (unit mm)*
G04 Created by KiCad (PCBNEW (5.99.0-3978-g0efe073de)) date 2020-10-22 13:19:47*
%MOMM*%
%LPD*%
G01*
G04 APERTURE LIST*
G04 #@! TA.AperFunction,ComponentPad*
%ADD10C,1.727200*%
G04 #@! TD*
G04 #@! TA.AperFunction,TestPad*
%ADD11O,0.508000X0.762000*%
G04 #@! TD*
G04 #@! TA.AperFunction,SMDPad,CuDef*
%ADD12R,1.016000X1.016000*%
G04 #@! TD*
G04 #@! TA.AperFunction,SMDPad,CuDef*
%ADD13R,0.450000X0.430000*%
G04 #@! TD*
G04 #@! TA.AperFunction,TestPad*
%ADD14O,1.600000X1.600000*%
G04 #@! TD*
G04 #@! TA.AperFunction,TestPad*
%ADD15R,1.600000X1.600000*%
G04 #@! TD*
G04 #@! TA.AperFunction,SMDPad,CuDef*
%ADD16R,0.400000X20.320000*%
G04 #@! TD*
G04 #@! TA.AperFunction,SMDPad,CuDef*
%ADD17R,0.700000X0.600000*%
G04 #@! TD*
G04 #@! TA.AperFunction,SMDPad,CuDef*
%ADD18R,0.400000X0.400000*%
G04 #@! TD*
G04 #@! TA.AperFunction,SMDPad,CuDef*
%ADD19R,0.900000X1.300000*%
G04 #@! TD*
G04 #@! TA.AperFunction,SMDPad,CuDef*
%ADD20R,0.700000X0.900000*%
G04 #@! TD*
G04 #@! TA.AperFunction,SMDPad,CuDef*
%ADD21R,1.100000X1.700000*%
G04 #@! TD*
G04 #@! TA.AperFunction,SMDPad,CuDef*
%ADD22R,1.300000X1.198880*%
G04 #@! TD*
G04 #@! TA.AperFunction,SMDPad,CuDef*
%ADD23R,0.600000X0.600000*%
G04 #@! TD*
G04 #@! TA.AperFunction,SMDPad,CuDef*
%ADD24R,1.700000X1.800860*%
G04 #@! TD*
G04 #@! TA.AperFunction,SMDPad,CuDef*
%ADD25R,1.000000X0.797560*%
G04 #@! TD*
G04 #@! TA.AperFunction,SMDPad,CuDef*
%ADD26R,1.600000X1.600000*%
G04 #@! TD*
G04 #@! TA.AperFunction,SMDPad,CuDef*
%ADD27R,0.650000X1.700000*%
G04 #@! TD*
G04 #@! TA.AperFunction,ViaPad*
%ADD28C,0.800000*%
G04 #@! TD*
G04 #@! TA.AperFunction,Conductor*
%ADD29C,0.203200*%
G04 #@! TD*
G04 #@! TA.AperFunction,Conductor*
%ADD30C,0.250000*%
G04 #@! TD*
G04 APERTURE END LIST*
D10*
G04 #@! TO.P,REF\u002A\u002A,1*
G04 #@! TO.N,N/C*
X8890000Y-74930000D03*
G04 #@! TD*
D11*
G04 #@! TO.P,P5,1,P1*
G04 #@! TO.N,Net-(D5-Pad2)*
X57150000Y-67132200D03*
G04 #@! TD*
D12*
G04 #@! TO.P,REF\u002A\u002A,1*
G04 #@! TO.N,N/C*
X65405000Y-86995000D03*
G04 #@! TD*
G04 #@! TO.P,REF\u002A\u002A,1*
G04 #@! TO.N,N/C*
X61595000Y-85725000D03*
G04 #@! TD*
D10*
G04 #@! TO.P,REF\u002A\u002A,1*
G04 #@! TO.N,N/C*
X13970000Y-77470000D03*
G04 #@! TD*
D12*
G04 #@! TO.P,REF\u002A\u002A,1*
G04 #@! TO.N,N/C*
X53975000Y-86995000D03*
G04 #@! TD*
D13*
G04 #@! TO.P,R5,1*
G04 #@! TO.N,Net-(D5-Pad1)*
X53282800Y-67132200D03*
G04 #@! TO.P,R5,2*
G04 #@! TO.N,GND*
X52482800Y-67132200D03*
G04 #@! TD*
D12*
G04 #@! TO.P,REF\u002A\u002A,1*
G04 #@! TO.N,N/C*
X59055000Y-71755000D03*
G04 #@! TD*
G04 #@! TO.P,REF\u002A\u002A,1*
G04 #@! TO.N,N/C*
X56515000Y-71755000D03*
G04 #@! TD*
D14*
G04 #@! TO.P,CON1,1*
G04 #@! TO.N,Net-(CON1-Pad1)*
X64439800Y-49987200D03*
D15*
G04 #@! TO.P,CON1,2*
G04 #@! TO.N,+BATT*
X66979800Y-49987200D03*
D14*
G04 #@! TO.P,CON1,3*
G04 #@! TO.N,Net-(CON1-Pad3)*
X64439800Y-52527200D03*
G04 #@! TO.P,CON1,4*
G04 #@! TO.N,Net-(CON1-Pad4)*
X66979800Y-52527200D03*
G04 #@! TO.P,CON1,5*
G04 #@! TO.N,Net-(CON1-Pad5)*
X64439800Y-55067200D03*
G04 #@! TO.P,CON1,6*
G04 #@! TO.N,GND*
X66979800Y-55067200D03*
G04 #@! TD*
D10*
G04 #@! TO.P,REF\u002A\u002A,1*
G04 #@! TO.N,N/C*
X16510000Y-87630000D03*
G04 #@! TD*
D12*
G04 #@! TO.P,REF\u002A\u002A,1*
G04 #@! TO.N,N/C*
X62865000Y-89535000D03*
G04 #@! TD*
D10*
G04 #@! TO.P,REF\u002A\u002A,1*
G04 #@! TO.N,N/C*
X19050000Y-87630000D03*
G04 #@! TD*
D12*
G04 #@! TO.P,REF\u002A\u002A,1*
G04 #@! TO.N,N/C*
X48895000Y-76835000D03*
G04 #@! TD*
G04 #@! TO.P,REF\u002A\u002A,1*
G04 #@! TO.N,N/C*
X48895000Y-83185000D03*
G04 #@! TD*
G04 #@! TO.P,REF\u002A\u002A,1*
G04 #@! TO.N,N/C*
X52705000Y-83185000D03*
G04 #@! TD*
D10*
G04 #@! TO.P,REF\u002A\u002A,1*
G04 #@! TO.N,N/C*
X3810000Y-85090000D03*
G04 #@! TD*
D12*
G04 #@! TO.P,REF\u002A\u002A,1*
G04 #@! TO.N,N/C*
X48895000Y-86995000D03*
G04 #@! TD*
D10*
G04 #@! TO.P,REF\u002A\u002A,1*
G04 #@! TO.N,N/C*
X21590000Y-72390000D03*
G04 #@! TD*
D12*
G04 #@! TO.P,REF\u002A\u002A,1*
G04 #@! TO.N,N/C*
X67945000Y-81915000D03*
G04 #@! TD*
D10*
G04 #@! TO.P,REF\u002A\u002A,1*
G04 #@! TO.N,N/C*
X3810000Y-74930000D03*
G04 #@! TD*
G04 #@! TO.P,REF\u002A\u002A,1*
G04 #@! TO.N,N/C*
X13970000Y-74930000D03*
G04 #@! TD*
D12*
G04 #@! TO.P,REF\u002A\u002A,1*
G04 #@! TO.N,N/C*
X66675000Y-73025000D03*
G04 #@! TD*
G04 #@! TO.P,REF\u002A\u002A,1*
G04 #@! TO.N,N/C*
X62865000Y-78105000D03*
G04 #@! TD*
G04 #@! TO.P,REF\u002A\u002A,1*
G04 #@! TO.N,N/C*
X48895000Y-89535000D03*
G04 #@! TD*
G04 #@! TO.P,REF\u002A\u002A,1*
G04 #@! TO.N,N/C*
X65405000Y-76835000D03*
G04 #@! TD*
G04 #@! TO.P,REF\u002A\u002A,1*
G04 #@! TO.N,N/C*
X62865000Y-83185000D03*
G04 #@! TD*
D10*
G04 #@! TO.P,REF\u002A\u002A,1*
G04 #@! TO.N,N/C*
X16510000Y-90170000D03*
G04 #@! TD*
D12*
G04 #@! TO.P,REF\u002A\u002A,1*
G04 #@! TO.N,N/C*
X65405000Y-90805000D03*
G04 #@! TD*
G04 #@! TO.P,REF\u002A\u002A,1*
G04 #@! TO.N,N/C*
X61595000Y-86995000D03*
G04 #@! TD*
G04 #@! TO.P,REF\u002A\u002A,1*
G04 #@! TO.N,N/C*
X53975000Y-81915000D03*
G04 #@! TD*
G04 #@! TO.P,REF\u002A\u002A,1*
G04 #@! TO.N,N/C*
X67945000Y-83185000D03*
G04 #@! TD*
D10*
G04 #@! TO.P,REF\u002A\u002A,1*
G04 #@! TO.N,N/C*
X11430000Y-74930000D03*
G04 #@! TD*
D12*
G04 #@! TO.P,REF\u002A\u002A,1*
G04 #@! TO.N,N/C*
X48895000Y-85725000D03*
G04 #@! TD*
D10*
G04 #@! TO.P,REF\u002A\u002A,1*
G04 #@! TO.N,N/C*
X8890000Y-85090000D03*
G04 #@! TD*
D12*
G04 #@! TO.P,REF\u002A\u002A,1*
G04 #@! TO.N,N/C*
X56515000Y-73025000D03*
G04 #@! TD*
G04 #@! TO.P,REF\u002A\u002A,1*
G04 #@! TO.N,N/C*
X48895000Y-88265000D03*
G04 #@! TD*
G04 #@! TO.P,REF\u002A\u002A,1*
G04 #@! TO.N,N/C*
X60325000Y-79375000D03*
G04 #@! TD*
D10*
G04 #@! TO.P,REF\u002A\u002A,1*
G04 #@! TO.N,N/C*
X8890000Y-77470000D03*
G04 #@! TD*
D12*
G04 #@! TO.P,REF\u002A\u002A,1*
G04 #@! TO.N,N/C*
X62865000Y-81915000D03*
G04 #@! TD*
G04 #@! TO.P,REF\u002A\u002A,1*
G04 #@! TO.N,N/C*
X65405000Y-79375000D03*
G04 #@! TD*
G04 #@! TO.P,REF\u002A\u002A,1*
G04 #@! TO.N,N/C*
X64135000Y-80645000D03*
G04 #@! TD*
G04 #@! TO.P,REF\u002A\u002A,1*
G04 #@! TO.N,N/C*
X53975000Y-85725000D03*
G04 #@! TD*
G04 #@! TO.P,REF\u002A\u002A,1*
G04 #@! TO.N,N/C*
X60325000Y-78105000D03*
G04 #@! TD*
G04 #@! TO.P,REF\u002A\u002A,1*
G04 #@! TO.N,N/C*
X62865000Y-86995000D03*
G04 #@! TD*
G04 #@! TO.P,REF\u002A\u002A,1*
G04 #@! TO.N,N/C*
X59055000Y-78105000D03*
G04 #@! TD*
G04 #@! TO.P,REF\u002A\u002A,1*
G04 #@! TO.N,N/C*
X57785000Y-89535000D03*
G04 #@! TD*
D10*
G04 #@! TO.P,REF\u002A\u002A,1*
G04 #@! TO.N,N/C*
X3810000Y-80010000D03*
G04 #@! TD*
D12*
G04 #@! TO.P,REF\u002A\u002A,1*
G04 #@! TO.N,N/C*
X59055000Y-79375000D03*
G04 #@! TD*
G04 #@! TO.P,REF\u002A\u002A,1*
G04 #@! TO.N,N/C*
X52705000Y-90805000D03*
G04 #@! TD*
G04 #@! TO.P,REF\u002A\u002A,1*
G04 #@! TO.N,N/C*
X48895000Y-78105000D03*
G04 #@! TD*
G04 #@! TO.P,REF\u002A\u002A,1*
G04 #@! TO.N,N/C*
X53975000Y-78105000D03*
G04 #@! TD*
G04 #@! TO.P,REF\u002A\u002A,1*
G04 #@! TO.N,N/C*
X66675000Y-85725000D03*
G04 #@! TD*
G04 #@! TO.P,REF\u002A\u002A,1*
G04 #@! TO.N,N/C*
X50165000Y-89535000D03*
G04 #@! TD*
G04 #@! TO.P,REF\u002A\u002A,1*
G04 #@! TO.N,N/C*
X65405000Y-75565000D03*
G04 #@! TD*
G04 #@! TO.P,REF\u002A\u002A,1*
G04 #@! TO.N,N/C*
X48895000Y-84455000D03*
G04 #@! TD*
G04 #@! TO.P,REF\u002A\u002A,1*
G04 #@! TO.N,N/C*
X62865000Y-71755000D03*
G04 #@! TD*
D11*
G04 #@! TO.P,PG2,1,P1*
G04 #@! TO.N,GND*
X50546000Y-53975000D03*
G04 #@! TD*
D10*
G04 #@! TO.P,REF\u002A\u002A,1*
G04 #@! TO.N,N/C*
X6350000Y-85090000D03*
G04 #@! TD*
D12*
G04 #@! TO.P,REF\u002A\u002A,1*
G04 #@! TO.N,N/C*
X65405000Y-88265000D03*
G04 #@! TD*
G04 #@! TO.P,REF\u002A\u002A,1*
G04 #@! TO.N,N/C*
X64135000Y-81915000D03*
G04 #@! TD*
D10*
G04 #@! TO.P,REF\u002A\u002A,1*
G04 #@! TO.N,N/C*
X16510000Y-72390000D03*
G04 #@! TD*
D16*
G04 #@! TO.P,REF\u002A\u002A,1*
G04 #@! TO.N,N/C*
X12065000Y-35560000D03*
G04 #@! TD*
D10*
G04 #@! TO.P,REF\u002A\u002A,1*
G04 #@! TO.N,N/C*
X3810000Y-90170000D03*
G04 #@! TD*
G04 #@! TO.P,REF\u002A\u002A,1*
G04 #@! TO.N,N/C*
X16510000Y-85090000D03*
G04 #@! TD*
D12*
G04 #@! TO.P,REF\u002A\u002A,1*
G04 #@! TO.N,N/C*
X56515000Y-90805000D03*
G04 #@! TD*
D10*
G04 #@! TO.P,REF\u002A\u002A,1*
G04 #@! TO.N,N/C*
X6350000Y-77470000D03*
G04 #@! TD*
D12*
G04 #@! TO.P,REF\u002A\u002A,1*
G04 #@! TO.N,N/C*
X64135000Y-85725000D03*
G04 #@! TD*
G04 #@! TO.P,REF\u002A\u002A,1*
G04 #@! TO.N,N/C*
X60325000Y-86995000D03*
G04 #@! TD*
G04 #@! TO.P,REF\u002A\u002A,1*
G04 #@! TO.N,N/C*
X67945000Y-90805000D03*
G04 #@! TD*
G04 #@! TO.P,REF\u002A\u002A,1*
G04 #@! TO.N,N/C*
X55245000Y-73025000D03*
G04 #@! TD*
G04 #@! TO.P,REF\u002A\u002A,1*
G04 #@! TO.N,N/C*
X56515000Y-78105000D03*
G04 #@! TD*
G04 #@! TO.P,REF\u002A\u002A,1*
G04 #@! TO.N,N/C*
X56515000Y-89535000D03*
G04 #@! TD*
D10*
G04 #@! TO.P,REF\u002A\u002A,1*
G04 #@! TO.N,N/C*
X8890000Y-80010000D03*
G04 #@! TD*
D12*
G04 #@! TO.P,REF\u002A\u002A,1*
G04 #@! TO.N,N/C*
X62865000Y-73025000D03*
G04 #@! TD*
G04 #@! TO.P,REF\u002A\u002A,1*
G04 #@! TO.N,N/C*
X65405000Y-85725000D03*
G04 #@! TD*
D10*
G04 #@! TO.P,REF\u002A\u002A,1*
G04 #@! TO.N,N/C*
X19050000Y-82550000D03*
G04 #@! TD*
D12*
G04 #@! TO.P,REF\u002A\u002A,1*
G04 #@! TO.N,N/C*
X52705000Y-85725000D03*
G04 #@! TD*
D16*
G04 #@! TO.P,REF\u002A\u002A,1*
G04 #@! TO.N,N/C*
X22225000Y-35560000D03*
G04 #@! TD*
D17*
G04 #@! TO.P,D4,1,K*
G04 #@! TO.N,Net-(D4-Pad1)*
X56345200Y-62839600D03*
G04 #@! TO.P,D4,2,A*
G04 #@! TO.N,Net-(D4-Pad2)*
X57345200Y-62839600D03*
G04 #@! TD*
D12*
G04 #@! TO.P,REF\u002A\u002A,1*
G04 #@! TO.N,N/C*
X55245000Y-85725000D03*
G04 #@! TD*
G04 #@! TO.P,REF\u002A\u002A,1*
G04 #@! TO.N,N/C*
X61595000Y-80645000D03*
G04 #@! TD*
G04 #@! TO.P,REF\u002A\u002A,1*
G04 #@! TO.N,N/C*
X57785000Y-84455000D03*
G04 #@! TD*
D10*
G04 #@! TO.P,REF\u002A\u002A,1*
G04 #@! TO.N,N/C*
X6350000Y-87630000D03*
G04 #@! TD*
G04 #@! TO.P,REF\u002A\u002A,1*
G04 #@! TO.N,N/C*
X21590000Y-87630000D03*
G04 #@! TD*
D11*
G04 #@! TO.P,P3,1,P1*
G04 #@! TO.N,Net-(CON1-Pad3)*
X60325000Y-58420000D03*
G04 #@! TD*
D10*
G04 #@! TO.P,REF\u002A\u002A,1*
G04 #@! TO.N,N/C*
X21590000Y-74930000D03*
G04 #@! TD*
D12*
G04 #@! TO.P,REF\u002A\u002A,1*
G04 #@! TO.N,N/C*
X65405000Y-89535000D03*
G04 #@! TD*
G04 #@! TO.P,REF\u002A\u002A,1*
G04 #@! TO.N,N/C*
X56515000Y-74295000D03*
G04 #@! TD*
G04 #@! TO.P,REF\u002A\u002A,1*
G04 #@! TO.N,N/C*
X51435000Y-85725000D03*
G04 #@! TD*
G04 #@! TO.P,REF\u002A\u002A,1*
G04 #@! TO.N,N/C*
X56515000Y-75565000D03*
G04 #@! TD*
D16*
G04 #@! TO.P,REF\u002A\u002A,1*
G04 #@! TO.N,N/C*
X14605000Y-35560000D03*
G04 #@! TD*
D12*
G04 #@! TO.P,REF\u002A\u002A,1*
G04 #@! TO.N,N/C*
X62865000Y-85725000D03*
G04 #@! TD*
G04 #@! TO.P,REF\u002A\u002A,1*
G04 #@! TO.N,N/C*
X66675000Y-74295000D03*
G04 #@! TD*
D16*
G04 #@! TO.P,REF\u002A\u002A,1*
G04 #@! TO.N,N/C*
X6985000Y-35560000D03*
G04 #@! TD*
D12*
G04 #@! TO.P,REF\u002A\u002A,1*
G04 #@! TO.N,N/C*
X50165000Y-83185000D03*
G04 #@! TD*
D10*
G04 #@! TO.P,REF\u002A\u002A,1*
G04 #@! TO.N,N/C*
X3810000Y-77470000D03*
G04 #@! TD*
D12*
G04 #@! TO.P,REF\u002A\u002A,1*
G04 #@! TO.N,N/C*
X50165000Y-78105000D03*
G04 #@! TD*
D10*
G04 #@! TO.P,REF\u002A\u002A,1*
G04 #@! TO.N,N/C*
X21590000Y-85090000D03*
G04 #@! TD*
D12*
G04 #@! TO.P,REF\u002A\u002A,1*
G04 #@! TO.N,N/C*
X65405000Y-74295000D03*
G04 #@! TD*
G04 #@! TO.P,REF\u002A\u002A,1*
G04 #@! TO.N,N/C*
X55245000Y-78105000D03*
G04 #@! TD*
G04 #@! TO.P,REF\u002A\u002A,1*
G04 #@! TO.N,N/C*
X59055000Y-83185000D03*
G04 #@! TD*
G04 #@! TO.P,REF\u002A\u002A,1*
G04 #@! TO.N,N/C*
X57785000Y-75565000D03*
G04 #@! TD*
D10*
G04 #@! TO.P,REF\u002A\u002A,1*
G04 #@! TO.N,N/C*
X16510000Y-80010000D03*
G04 #@! TD*
D12*
G04 #@! TO.P,REF\u002A\u002A,1*
G04 #@! TO.N,N/C*
X51435000Y-74295000D03*
G04 #@! TD*
D10*
G04 #@! TO.P,REF\u002A\u002A,1*
G04 #@! TO.N,N/C*
X16510000Y-74930000D03*
G04 #@! TD*
D12*
G04 #@! TO.P,REF\u002A\u002A,1*
G04 #@! TO.N,N/C*
X66675000Y-88265000D03*
G04 #@! TD*
G04 #@! TO.P,REF\u002A\u002A,1*
G04 #@! TO.N,N/C*
X51435000Y-84455000D03*
G04 #@! TD*
G04 #@! TO.P,REF\u002A\u002A,1*
G04 #@! TO.N,N/C*
X67945000Y-86995000D03*
G04 #@! TD*
D10*
G04 #@! TO.P,REF\u002A\u002A,1*
G04 #@! TO.N,N/C*
X19050000Y-77470000D03*
G04 #@! TD*
G04 #@! TO.P,REF\u002A\u002A,1*
G04 #@! TO.N,N/C*
X11430000Y-77470000D03*
G04 #@! TD*
D12*
G04 #@! TO.P,REF\u002A\u002A,1*
G04 #@! TO.N,N/C*
X52705000Y-71755000D03*
G04 #@! TD*
G04 #@! TO.P,REF\u002A\u002A,1*
G04 #@! TO.N,N/C*
X51435000Y-71755000D03*
G04 #@! TD*
G04 #@! TO.P,REF\u002A\u002A,1*
G04 #@! TO.N,N/C*
X50165000Y-90805000D03*
G04 #@! TD*
G04 #@! TO.P,REF\u002A\u002A,1*
G04 #@! TO.N,N/C*
X51435000Y-89535000D03*
G04 #@! TD*
G04 #@! TO.P,REF\u002A\u002A,1*
G04 #@! TO.N,N/C*
X66675000Y-71755000D03*
G04 #@! TD*
G04 #@! TO.P,REF\u002A\u002A,1*
G04 #@! TO.N,N/C*
X57785000Y-90805000D03*
G04 #@! TD*
G04 #@! TO.P,REF\u002A\u002A,1*
G04 #@! TO.N,N/C*
X51435000Y-80645000D03*
G04 #@! TD*
G04 #@! TO.P,REF\u002A\u002A,1*
G04 #@! TO.N,N/C*
X57785000Y-78105000D03*
G04 #@! TD*
G04 #@! TO.P,REF\u002A\u002A,1*
G04 #@! TO.N,N/C*
X64135000Y-83185000D03*
G04 #@! TD*
G04 #@! TO.P,REF\u002A\u002A,1*
G04 #@! TO.N,N/C*
X55245000Y-71755000D03*
G04 #@! TD*
G04 #@! TO.P,REF\u002A\u002A,1*
G04 #@! TO.N,N/C*
X61595000Y-73025000D03*
G04 #@! TD*
G04 #@! TO.P,REF\u002A\u002A,1*
G04 #@! TO.N,N/C*
X60325000Y-83185000D03*
G04 #@! TD*
G04 #@! TO.P,REF\u002A\u002A,1*
G04 #@! TO.N,N/C*
X56515000Y-80645000D03*
G04 #@! TD*
G04 #@! TO.P,REF\u002A\u002A,1*
G04 #@! TO.N,N/C*
X59055000Y-75565000D03*
G04 #@! TD*
G04 #@! TO.P,REF\u002A\u002A,1*
G04 #@! TO.N,N/C*
X61595000Y-74295000D03*
G04 #@! TD*
D11*
G04 #@! TO.P,P4,1,P1*
G04 #@! TO.N,Net-(D4-Pad2)*
X58420000Y-62865000D03*
G04 #@! TD*
D12*
G04 #@! TO.P,REF\u002A\u002A,1*
G04 #@! TO.N,N/C*
X52705000Y-88265000D03*
G04 #@! TD*
G04 #@! TO.P,REF\u002A\u002A,1*
G04 #@! TO.N,N/C*
X53975000Y-71755000D03*
G04 #@! TD*
G04 #@! TO.P,REF\u002A\u002A,1*
G04 #@! TO.N,N/C*
X55245000Y-81915000D03*
G04 #@! TD*
G04 #@! TO.P,REF\u002A\u002A,1*
G04 #@! TO.N,N/C*
X66675000Y-90805000D03*
G04 #@! TD*
D10*
G04 #@! TO.P,REF\u002A\u002A,1*
G04 #@! TO.N,N/C*
X6350000Y-72390000D03*
G04 #@! TD*
D12*
G04 #@! TO.P,REF\u002A\u002A,1*
G04 #@! TO.N,N/C*
X57785000Y-83185000D03*
G04 #@! TD*
G04 #@! TO.P,REF\u002A\u002A,1*
G04 #@! TO.N,N/C*
X52705000Y-73025000D03*
G04 #@! TD*
G04 #@! TO.P,REF\u002A\u002A,1*
G04 #@! TO.N,N/C*
X62865000Y-75565000D03*
G04 #@! TD*
G04 #@! TO.P,REF\u002A\u002A,1*
G04 #@! TO.N,N/C*
X59055000Y-84455000D03*
G04 #@! TD*
G04 #@! TO.P,REF\u002A\u002A,1*
G04 #@! TO.N,N/C*
X60325000Y-80645000D03*
G04 #@! TD*
G04 #@! TO.P,REF\u002A\u002A,1*
G04 #@! TO.N,N/C*
X64135000Y-88265000D03*
G04 #@! TD*
G04 #@! TO.P,REF\u002A\u002A,1*
G04 #@! TO.N,N/C*
X67945000Y-89535000D03*
G04 #@! TD*
G04 #@! TO.P,REF\u002A\u002A,1*
G04 #@! TO.N,N/C*
X50165000Y-88265000D03*
G04 #@! TD*
G04 #@! TO.P,REF\u002A\u002A,1*
G04 #@! TO.N,N/C*
X50165000Y-79375000D03*
G04 #@! TD*
G04 #@! TO.P,REF\u002A\u002A,1*
G04 #@! TO.N,N/C*
X64135000Y-75565000D03*
G04 #@! TD*
G04 #@! TO.P,REF\u002A\u002A,1*
G04 #@! TO.N,N/C*
X53975000Y-79375000D03*
G04 #@! TD*
G04 #@! TO.P,REF\u002A\u002A,1*
G04 #@! TO.N,N/C*
X67945000Y-78105000D03*
G04 #@! TD*
G04 #@! TO.P,REF\u002A\u002A,1*
G04 #@! TO.N,N/C*
X52705000Y-76835000D03*
G04 #@! TD*
G04 #@! TO.P,REF\u002A\u002A,1*
G04 #@! TO.N,N/C*
X59055000Y-89535000D03*
G04 #@! TD*
G04 #@! TO.P,REF\u002A\u002A,1*
G04 #@! TO.N,N/C*
X65405000Y-81915000D03*
G04 #@! TD*
G04 #@! TO.P,REF\u002A\u002A,1*
G04 #@! TO.N,N/C*
X51435000Y-81915000D03*
G04 #@! TD*
G04 #@! TO.P,REF\u002A\u002A,1*
G04 #@! TO.N,N/C*
X48895000Y-81915000D03*
G04 #@! TD*
D10*
G04 #@! TO.P,REF\u002A\u002A,1*
G04 #@! TO.N,N/C*
X16510000Y-77470000D03*
G04 #@! TD*
D16*
G04 #@! TO.P,REF\u002A\u002A,1*
G04 #@! TO.N,N/C*
X13335000Y-35560000D03*
G04 #@! TD*
D12*
G04 #@! TO.P,REF\u002A\u002A,1*
G04 #@! TO.N,N/C*
X67945000Y-84455000D03*
G04 #@! TD*
G04 #@! TO.P,REF\u002A\u002A,1*
G04 #@! TO.N,N/C*
X66675000Y-75565000D03*
G04 #@! TD*
G04 #@! TO.P,REF\u002A\u002A,1*
G04 #@! TO.N,N/C*
X60325000Y-84455000D03*
G04 #@! TD*
G04 #@! TO.P,REF\u002A\u002A,1*
G04 #@! TO.N,N/C*
X64135000Y-89535000D03*
G04 #@! TD*
G04 #@! TO.P,REF\u002A\u002A,1*
G04 #@! TO.N,N/C*
X60325000Y-73025000D03*
G04 #@! TD*
D10*
G04 #@! TO.P,REF\u002A\u002A,1*
G04 #@! TO.N,N/C*
X3810000Y-72390000D03*
G04 #@! TD*
D12*
G04 #@! TO.P,REF\u002A\u002A,1*
G04 #@! TO.N,N/C*
X59055000Y-76835000D03*
G04 #@! TD*
D10*
G04 #@! TO.P,REF\u002A\u002A,1*
G04 #@! TO.N,N/C*
X11430000Y-85090000D03*
G04 #@! TD*
D12*
G04 #@! TO.P,REF\u002A\u002A,1*
G04 #@! TO.N,N/C*
X52705000Y-78105000D03*
G04 #@! TD*
G04 #@! TO.P,REF\u002A\u002A,1*
G04 #@! TO.N,N/C*
X56515000Y-76835000D03*
G04 #@! TD*
G04 #@! TO.P,REF\u002A\u002A,1*
G04 #@! TO.N,N/C*
X62865000Y-90805000D03*
G04 #@! TD*
G04 #@! TO.P,REF\u002A\u002A,1*
G04 #@! TO.N,N/C*
X53975000Y-76835000D03*
G04 #@! TD*
G04 #@! TO.P,REF\u002A\u002A,1*
G04 #@! TO.N,N/C*
X50165000Y-85725000D03*
G04 #@! TD*
G04 #@! TO.P,REF\u002A\u002A,1*
G04 #@! TO.N,N/C*
X51435000Y-90805000D03*
G04 #@! TD*
G04 #@! TO.P,REF\u002A\u002A,1*
G04 #@! TO.N,N/C*
X53975000Y-73025000D03*
G04 #@! TD*
G04 #@! TO.P,REF\u002A\u002A,1*
G04 #@! TO.N,N/C*
X60325000Y-81915000D03*
G04 #@! TD*
G04 #@! TO.P,REF\u002A\u002A,1*
G04 #@! TO.N,N/C*
X48895000Y-73025000D03*
G04 #@! TD*
G04 #@! TO.P,REF\u002A\u002A,1*
G04 #@! TO.N,N/C*
X67945000Y-75565000D03*
G04 #@! TD*
G04 #@! TO.P,REF\u002A\u002A,1*
G04 #@! TO.N,N/C*
X56515000Y-83185000D03*
G04 #@! TD*
G04 #@! TO.P,REF\u002A\u002A,1*
G04 #@! TO.N,N/C*
X50165000Y-76835000D03*
G04 #@! TD*
G04 #@! TO.P,REF\u002A\u002A,1*
G04 #@! TO.N,N/C*
X64135000Y-79375000D03*
G04 #@! TD*
G04 #@! TO.P,REF\u002A\u002A,1*
G04 #@! TO.N,N/C*
X59055000Y-81915000D03*
G04 #@! TD*
G04 #@! TO.P,REF\u002A\u002A,1*
G04 #@! TO.N,N/C*
X52705000Y-79375000D03*
G04 #@! TD*
D10*
G04 #@! TO.P,REF\u002A\u002A,1*
G04 #@! TO.N,N/C*
X21590000Y-90170000D03*
G04 #@! TD*
D16*
G04 #@! TO.P,REF\u002A\u002A,1*
G04 #@! TO.N,N/C*
X4445000Y-35560000D03*
G04 #@! TD*
G04 #@! TO.P,REF\u002A\u002A,1*
G04 #@! TO.N,N/C*
X9525000Y-35560000D03*
G04 #@! TD*
G04 #@! TO.P,REF\u002A\u002A,1*
G04 #@! TO.N,N/C*
X3175000Y-35560000D03*
G04 #@! TD*
D12*
G04 #@! TO.P,REF\u002A\u002A,1*
G04 #@! TO.N,N/C*
X66675000Y-84455000D03*
G04 #@! TD*
D10*
G04 #@! TO.P,REF\u002A\u002A,1*
G04 #@! TO.N,N/C*
X19050000Y-85090000D03*
G04 #@! TD*
D12*
G04 #@! TO.P,REF\u002A\u002A,1*
G04 #@! TO.N,N/C*
X59055000Y-88265000D03*
G04 #@! TD*
G04 #@! TO.P,REF\u002A\u002A,1*
G04 #@! TO.N,N/C*
X62865000Y-74295000D03*
G04 #@! TD*
G04 #@! TO.P,REF\u002A\u002A,1*
G04 #@! TO.N,N/C*
X55245000Y-86995000D03*
G04 #@! TD*
G04 #@! TO.P,REF\u002A\u002A,1*
G04 #@! TO.N,N/C*
X62865000Y-84455000D03*
G04 #@! TD*
G04 #@! TO.P,REF\u002A\u002A,1*
G04 #@! TO.N,N/C*
X66675000Y-81915000D03*
G04 #@! TD*
G04 #@! TO.P,REF\u002A\u002A,1*
G04 #@! TO.N,N/C*
X55245000Y-75565000D03*
G04 #@! TD*
G04 #@! TO.P,REF\u002A\u002A,1*
G04 #@! TO.N,N/C*
X56515000Y-88265000D03*
G04 #@! TD*
G04 #@! TO.P,REF\u002A\u002A,1*
G04 #@! TO.N,N/C*
X51435000Y-75565000D03*
G04 #@! TD*
G04 #@! TO.P,REF\u002A\u002A,1*
G04 #@! TO.N,N/C*
X55245000Y-76835000D03*
G04 #@! TD*
G04 #@! TO.P,REF\u002A\u002A,1*
G04 #@! TO.N,N/C*
X60325000Y-76835000D03*
G04 #@! TD*
G04 #@! TO.P,REF\u002A\u002A,1*
G04 #@! TO.N,N/C*
X51435000Y-73025000D03*
G04 #@! TD*
D10*
G04 #@! TO.P,REF\u002A\u002A,1*
G04 #@! TO.N,N/C*
X8890000Y-87630000D03*
G04 #@! TD*
G04 #@! TO.P,REF\u002A\u002A,1*
G04 #@! TO.N,N/C*
X21590000Y-82550000D03*
G04 #@! TD*
D12*
G04 #@! TO.P,REF\u002A\u002A,1*
G04 #@! TO.N,N/C*
X67945000Y-73025000D03*
G04 #@! TD*
G04 #@! TO.P,REF\u002A\u002A,1*
G04 #@! TO.N,N/C*
X56515000Y-86995000D03*
G04 #@! TD*
G04 #@! TO.P,REF\u002A\u002A,1*
G04 #@! TO.N,N/C*
X62865000Y-76835000D03*
G04 #@! TD*
G04 #@! TO.P,REF\u002A\u002A,1*
G04 #@! TO.N,N/C*
X60325000Y-88265000D03*
G04 #@! TD*
D10*
G04 #@! TO.P,REF\u002A\u002A,1*
G04 #@! TO.N,N/C*
X16510000Y-82550000D03*
G04 #@! TD*
D18*
G04 #@! TO.P,D5,1,K*
G04 #@! TO.N,Net-(D5-Pad1)*
X55580000Y-67132200D03*
G04 #@! TO.P,D5,2,A*
G04 #@! TO.N,Net-(D5-Pad2)*
X56180000Y-67132200D03*
G04 #@! TD*
D10*
G04 #@! TO.P,REF\u002A\u002A,1*
G04 #@! TO.N,N/C*
X8890000Y-72390000D03*
G04 #@! TD*
D12*
G04 #@! TO.P,REF\u002A\u002A,1*
G04 #@! TO.N,N/C*
X59055000Y-73025000D03*
G04 #@! TD*
G04 #@! TO.P,REF\u002A\u002A,1*
G04 #@! TO.N,N/C*
X53975000Y-74295000D03*
G04 #@! TD*
D10*
G04 #@! TO.P,REF\u002A\u002A,1*
G04 #@! TO.N,N/C*
X13970000Y-82550000D03*
G04 #@! TD*
G04 #@! TO.P,REF\u002A\u002A,1*
G04 #@! TO.N,N/C*
X21590000Y-77470000D03*
G04 #@! TD*
D12*
G04 #@! TO.P,REF\u002A\u002A,1*
G04 #@! TO.N,N/C*
X53975000Y-75565000D03*
G04 #@! TD*
G04 #@! TO.P,REF\u002A\u002A,1*
G04 #@! TO.N,N/C*
X62865000Y-80645000D03*
G04 #@! TD*
G04 #@! TO.P,REF\u002A\u002A,1*
G04 #@! TO.N,N/C*
X64135000Y-76835000D03*
G04 #@! TD*
D16*
G04 #@! TO.P,REF\u002A\u002A,1*
G04 #@! TO.N,N/C*
X19685000Y-35560000D03*
G04 #@! TD*
D12*
G04 #@! TO.P,REF\u002A\u002A,1*
G04 #@! TO.N,N/C*
X65405000Y-83185000D03*
G04 #@! TD*
G04 #@! TO.P,REF\u002A\u002A,1*
G04 #@! TO.N,N/C*
X64135000Y-90805000D03*
G04 #@! TD*
G04 #@! TO.P,REF\u002A\u002A,1*
G04 #@! TO.N,N/C*
X66675000Y-83185000D03*
G04 #@! TD*
D11*
G04 #@! TO.P,PG5,1,P1*
G04 #@! TO.N,GND*
X50546000Y-58420000D03*
G04 #@! TD*
D12*
G04 #@! TO.P,REF\u002A\u002A,1*
G04 #@! TO.N,N/C*
X61595000Y-78105000D03*
G04 #@! TD*
G04 #@! TO.P,REF\u002A\u002A,1*
G04 #@! TO.N,N/C*
X61595000Y-81915000D03*
G04 #@! TD*
G04 #@! TO.P,REF\u002A\u002A,1*
G04 #@! TO.N,N/C*
X60325000Y-90805000D03*
G04 #@! TD*
G04 #@! TO.P,REF\u002A\u002A,1*
G04 #@! TO.N,N/C*
X64135000Y-73025000D03*
G04 #@! TD*
G04 #@! TO.P,REF\u002A\u002A,1*
G04 #@! TO.N,N/C*
X53975000Y-83185000D03*
G04 #@! TD*
G04 #@! TO.P,REF\u002A\u002A,1*
G04 #@! TO.N,N/C*
X48895000Y-79375000D03*
G04 #@! TD*
G04 #@! TO.P,REF\u002A\u002A,1*
G04 #@! TO.N,N/C*
X52705000Y-84455000D03*
G04 #@! TD*
G04 #@! TO.P,REF\u002A\u002A,1*
G04 #@! TO.N,N/C*
X52705000Y-86995000D03*
G04 #@! TD*
D10*
G04 #@! TO.P,REF\u002A\u002A,1*
G04 #@! TO.N,N/C*
X8890000Y-82550000D03*
G04 #@! TD*
D12*
G04 #@! TO.P,REF\u002A\u002A,1*
G04 #@! TO.N,N/C*
X55245000Y-89535000D03*
G04 #@! TD*
G04 #@! TO.P,REF\u002A\u002A,1*
G04 #@! TO.N,N/C*
X65405000Y-73025000D03*
G04 #@! TD*
D10*
G04 #@! TO.P,REF\u002A\u002A,1*
G04 #@! TO.N,N/C*
X6350000Y-82550000D03*
G04 #@! TD*
D19*
G04 #@! TO.P,R2,1*
G04 #@! TO.N,Net-(D2-Pad1)*
X54991000Y-54000400D03*
G04 #@! TO.P,R2,2*
G04 #@! TO.N,GND*
X52705000Y-54000400D03*
G04 #@! TD*
D12*
G04 #@! TO.P,REF\u002A\u002A,1*
G04 #@! TO.N,N/C*
X57785000Y-76835000D03*
G04 #@! TD*
G04 #@! TO.P,REF\u002A\u002A,1*
G04 #@! TO.N,N/C*
X60325000Y-85725000D03*
G04 #@! TD*
G04 #@! TO.P,REF\u002A\u002A,1*
G04 #@! TO.N,N/C*
X61595000Y-71755000D03*
G04 #@! TD*
G04 #@! TO.P,REF\u002A\u002A,1*
G04 #@! TO.N,N/C*
X56515000Y-85725000D03*
G04 #@! TD*
G04 #@! TO.P,REF\u002A\u002A,1*
G04 #@! TO.N,N/C*
X50165000Y-81915000D03*
G04 #@! TD*
D16*
G04 #@! TO.P,REF\u002A\u002A,1*
G04 #@! TO.N,N/C*
X15875000Y-35560000D03*
G04 #@! TD*
D12*
G04 #@! TO.P,REF\u002A\u002A,1*
G04 #@! TO.N,N/C*
X65405000Y-71755000D03*
G04 #@! TD*
D11*
G04 #@! TO.P,P1,1,P1*
G04 #@! TO.N,Net-(CON1-Pad4)*
X62865000Y-49707800D03*
G04 #@! TD*
D12*
G04 #@! TO.P,REF\u002A\u002A,1*
G04 #@! TO.N,N/C*
X61595000Y-75565000D03*
G04 #@! TD*
G04 #@! TO.P,REF\u002A\u002A,1*
G04 #@! TO.N,N/C*
X59055000Y-90805000D03*
G04 #@! TD*
G04 #@! TO.P,REF\u002A\u002A,1*
G04 #@! TO.N,N/C*
X59055000Y-80645000D03*
G04 #@! TD*
D10*
G04 #@! TO.P,REF\u002A\u002A,1*
G04 #@! TO.N,N/C*
X3810000Y-82550000D03*
G04 #@! TD*
D16*
G04 #@! TO.P,REF\u002A\u002A,1*
G04 #@! TO.N,N/C*
X5715000Y-35560000D03*
G04 #@! TD*
D10*
G04 #@! TO.P,REF\u002A\u002A,1*
G04 #@! TO.N,N/C*
X19050000Y-74930000D03*
G04 #@! TD*
G04 #@! TO.P,REF\u002A\u002A,1*
G04 #@! TO.N,N/C*
X13970000Y-87630000D03*
G04 #@! TD*
D12*
G04 #@! TO.P,REF\u002A\u002A,1*
G04 #@! TO.N,N/C*
X60325000Y-71755000D03*
G04 #@! TD*
G04 #@! TO.P,REF\u002A\u002A,1*
G04 #@! TO.N,N/C*
X61595000Y-76835000D03*
G04 #@! TD*
G04 #@! TO.P,REF\u002A\u002A,1*
G04 #@! TO.N,N/C*
X55245000Y-80645000D03*
G04 #@! TD*
D11*
G04 #@! TO.P,P2,1,P1*
G04 #@! TO.N,Net-(CON1-Pad1)*
X61595000Y-53975000D03*
G04 #@! TD*
D12*
G04 #@! TO.P,REF\u002A\u002A,1*
G04 #@! TO.N,N/C*
X50165000Y-74295000D03*
G04 #@! TD*
G04 #@! TO.P,REF\u002A\u002A,1*
G04 #@! TO.N,N/C*
X62865000Y-88265000D03*
G04 #@! TD*
G04 #@! TO.P,REF\u002A\u002A,1*
G04 #@! TO.N,N/C*
X65405000Y-78105000D03*
G04 #@! TD*
G04 #@! TO.P,REF\u002A\u002A,1*
G04 #@! TO.N,N/C*
X57785000Y-85725000D03*
G04 #@! TD*
G04 #@! TO.P,REF\u002A\u002A,1*
G04 #@! TO.N,N/C*
X67945000Y-74295000D03*
G04 #@! TD*
D16*
G04 #@! TO.P,REF\u002A\u002A,1*
G04 #@! TO.N,N/C*
X10795000Y-35560000D03*
G04 #@! TD*
D12*
G04 #@! TO.P,REF\u002A\u002A,1*
G04 #@! TO.N,N/C*
X55245000Y-74295000D03*
G04 #@! TD*
G04 #@! TO.P,REF\u002A\u002A,1*
G04 #@! TO.N,N/C*
X66675000Y-86995000D03*
G04 #@! TD*
G04 #@! TO.P,REF\u002A\u002A,1*
G04 #@! TO.N,N/C*
X67945000Y-79375000D03*
G04 #@! TD*
D10*
G04 #@! TO.P,REF\u002A\u002A,1*
G04 #@! TO.N,N/C*
X11430000Y-87630000D03*
G04 #@! TD*
D12*
G04 #@! TO.P,REF\u002A\u002A,1*
G04 #@! TO.N,N/C*
X57785000Y-74295000D03*
G04 #@! TD*
D10*
G04 #@! TO.P,REF\u002A\u002A,1*
G04 #@! TO.N,N/C*
X11430000Y-72390000D03*
G04 #@! TD*
D12*
G04 #@! TO.P,REF\u002A\u002A,1*
G04 #@! TO.N,N/C*
X56515000Y-84455000D03*
G04 #@! TD*
D10*
G04 #@! TO.P,REF\u002A\u002A,1*
G04 #@! TO.N,N/C*
X13970000Y-90170000D03*
G04 #@! TD*
G04 #@! TO.P,REF\u002A\u002A,1*
G04 #@! TO.N,N/C*
X19050000Y-80010000D03*
G04 #@! TD*
G04 #@! TO.P,REF\u002A\u002A,1*
G04 #@! TO.N,N/C*
X6350000Y-90170000D03*
G04 #@! TD*
D12*
G04 #@! TO.P,REF\u002A\u002A,1*
G04 #@! TO.N,N/C*
X50165000Y-75565000D03*
G04 #@! TD*
G04 #@! TO.P,REF\u002A\u002A,1*
G04 #@! TO.N,N/C*
X50165000Y-86995000D03*
G04 #@! TD*
G04 #@! TO.P,REF\u002A\u002A,1*
G04 #@! TO.N,N/C*
X56515000Y-81915000D03*
G04 #@! TD*
D10*
G04 #@! TO.P,REF\u002A\u002A,1*
G04 #@! TO.N,N/C*
X13970000Y-85090000D03*
G04 #@! TD*
D12*
G04 #@! TO.P,REF\u002A\u002A,1*
G04 #@! TO.N,N/C*
X59055000Y-74295000D03*
G04 #@! TD*
G04 #@! TO.P,REF\u002A\u002A,1*
G04 #@! TO.N,N/C*
X55245000Y-84455000D03*
G04 #@! TD*
D20*
G04 #@! TO.P,R3,1*
G04 #@! TO.N,Net-(D3-Pad1)*
X54483000Y-58420000D03*
G04 #@! TO.P,R3,2*
G04 #@! TO.N,GND*
X52578000Y-58420000D03*
G04 #@! TD*
D10*
G04 #@! TO.P,REF\u002A\u002A,1*
G04 #@! TO.N,N/C*
X6350000Y-80010000D03*
G04 #@! TD*
D12*
G04 #@! TO.P,REF\u002A\u002A,1*
G04 #@! TO.N,N/C*
X66675000Y-89535000D03*
G04 #@! TD*
G04 #@! TO.P,REF\u002A\u002A,1*
G04 #@! TO.N,N/C*
X61595000Y-89535000D03*
G04 #@! TD*
G04 #@! TO.P,REF\u002A\u002A,1*
G04 #@! TO.N,N/C*
X57785000Y-88265000D03*
G04 #@! TD*
D10*
G04 #@! TO.P,REF\u002A\u002A,1*
G04 #@! TO.N,N/C*
X11430000Y-82550000D03*
G04 #@! TD*
D21*
G04 #@! TO.P,R1,1*
G04 #@! TO.N,Net-(D1-Pad1)*
X56235600Y-49707800D03*
G04 #@! TO.P,R1,2*
G04 #@! TO.N,GND*
X52806600Y-49707800D03*
G04 #@! TD*
D12*
G04 #@! TO.P,REF\u002A\u002A,1*
G04 #@! TO.N,N/C*
X51435000Y-78105000D03*
G04 #@! TD*
G04 #@! TO.P,REF\u002A\u002A,1*
G04 #@! TO.N,N/C*
X53975000Y-84455000D03*
G04 #@! TD*
G04 #@! TO.P,REF\u002A\u002A,1*
G04 #@! TO.N,N/C*
X66675000Y-76835000D03*
G04 #@! TD*
G04 #@! TO.P,REF\u002A\u002A,1*
G04 #@! TO.N,N/C*
X61595000Y-83185000D03*
G04 #@! TD*
G04 #@! TO.P,REF\u002A\u002A,1*
G04 #@! TO.N,N/C*
X48895000Y-90805000D03*
G04 #@! TD*
D10*
G04 #@! TO.P,REF\u002A\u002A,1*
G04 #@! TO.N,N/C*
X21590000Y-80010000D03*
G04 #@! TD*
D12*
G04 #@! TO.P,REF\u002A\u002A,1*
G04 #@! TO.N,N/C*
X67945000Y-71755000D03*
G04 #@! TD*
D16*
G04 #@! TO.P,REF\u002A\u002A,1*
G04 #@! TO.N,N/C*
X18415000Y-35560000D03*
G04 #@! TD*
D12*
G04 #@! TO.P,REF\u002A\u002A,1*
G04 #@! TO.N,N/C*
X60325000Y-75565000D03*
G04 #@! TD*
G04 #@! TO.P,REF\u002A\u002A,1*
G04 #@! TO.N,N/C*
X64135000Y-71755000D03*
G04 #@! TD*
G04 #@! TO.P,REF\u002A\u002A,1*
G04 #@! TO.N,N/C*
X61595000Y-88265000D03*
G04 #@! TD*
D11*
G04 #@! TO.P,PG1,1,P1*
G04 #@! TO.N,GND*
X50546000Y-62865000D03*
G04 #@! TD*
D12*
G04 #@! TO.P,REF\u002A\u002A,1*
G04 #@! TO.N,N/C*
X57785000Y-81915000D03*
G04 #@! TD*
G04 #@! TO.P,REF\u002A\u002A,1*
G04 #@! TO.N,N/C*
X67945000Y-80645000D03*
G04 #@! TD*
G04 #@! TO.P,REF\u002A\u002A,1*
G04 #@! TO.N,N/C*
X61595000Y-90805000D03*
G04 #@! TD*
G04 #@! TO.P,REF\u002A\u002A,1*
G04 #@! TO.N,N/C*
X52705000Y-80645000D03*
G04 #@! TD*
D22*
G04 #@! TO.P,D2,1,K*
G04 #@! TO.N,Net-(D2-Pad1)*
X57505600Y-54000400D03*
G04 #@! TO.P,D2,2,A*
G04 #@! TO.N,Net-(CON1-Pad1)*
X59918600Y-54000400D03*
G04 #@! TD*
D12*
G04 #@! TO.P,REF\u002A\u002A,1*
G04 #@! TO.N,N/C*
X67945000Y-88265000D03*
G04 #@! TD*
G04 #@! TO.P,REF\u002A\u002A,1*
G04 #@! TO.N,N/C*
X65405000Y-80645000D03*
G04 #@! TD*
G04 #@! TO.P,REF\u002A\u002A,1*
G04 #@! TO.N,N/C*
X53975000Y-88265000D03*
G04 #@! TD*
D10*
G04 #@! TO.P,REF\u002A\u002A,1*
G04 #@! TO.N,N/C*
X13970000Y-72390000D03*
G04 #@! TD*
D12*
G04 #@! TO.P,REF\u002A\u002A,1*
G04 #@! TO.N,N/C*
X50165000Y-80645000D03*
G04 #@! TD*
D10*
G04 #@! TO.P,REF\u002A\u002A,1*
G04 #@! TO.N,N/C*
X19050000Y-90170000D03*
G04 #@! TD*
D23*
G04 #@! TO.P,R4,1*
G04 #@! TO.N,Net-(D4-Pad1)*
X53486000Y-62865000D03*
G04 #@! TO.P,R4,2*
G04 #@! TO.N,GND*
X52586000Y-62865000D03*
G04 #@! TD*
D10*
G04 #@! TO.P,REF\u002A\u002A,1*
G04 #@! TO.N,N/C*
X13970000Y-80010000D03*
G04 #@! TD*
D12*
G04 #@! TO.P,REF\u002A\u002A,1*
G04 #@! TO.N,N/C*
X51435000Y-79375000D03*
G04 #@! TD*
G04 #@! TO.P,REF\u002A\u002A,1*
G04 #@! TO.N,N/C*
X55245000Y-90805000D03*
G04 #@! TD*
G04 #@! TO.P,REF\u002A\u002A,1*
G04 #@! TO.N,N/C*
X67945000Y-76835000D03*
G04 #@! TD*
D24*
G04 #@! TO.P,D1,1,K*
G04 #@! TO.N,Net-(D1-Pad1)*
X58039000Y-49707800D03*
G04 #@! TO.P,D1,2,A*
G04 #@! TO.N,Net-(CON1-Pad4)*
X61214000Y-49707800D03*
G04 #@! TD*
D10*
G04 #@! TO.P,REF\u002A\u002A,1*
G04 #@! TO.N,N/C*
X8890000Y-90170000D03*
G04 #@! TD*
D12*
G04 #@! TO.P,REF\u002A\u002A,1*
G04 #@! TO.N,N/C*
X51435000Y-76835000D03*
G04 #@! TD*
G04 #@! TA.AperFunction,TestPad*
G04 #@! TO.P,G\u002A\u002A\u002A,*
G04 #@! TO.N,*
G36*
X34609539Y-53370807D02*
G01*
X34697778Y-53374478D01*
X34766152Y-53382382D01*
X34825900Y-53395981D01*
X34888264Y-53416736D01*
X34908403Y-53424287D01*
X35102588Y-53512807D01*
X35269091Y-53622321D01*
X35420692Y-53761253D01*
X35422350Y-53763004D01*
X35561603Y-53938918D01*
X35664462Y-54130104D01*
X35731694Y-54331889D01*
X35764068Y-54539600D01*
X35762351Y-54748567D01*
X35727310Y-54954118D01*
X35659713Y-55151579D01*
X35560327Y-55336281D01*
X35429921Y-55503550D01*
X35269260Y-55648714D01*
X35094401Y-55759246D01*
X34941241Y-55829760D01*
X34792280Y-55876016D01*
X34628547Y-55903360D01*
X34560538Y-55909747D01*
X34398573Y-55928369D01*
X34270570Y-55957278D01*
X34168871Y-55998836D01*
X34085817Y-56055403D01*
X34084570Y-56056467D01*
X34055717Y-56080490D01*
X34030655Y-56101765D01*
X34009118Y-56123286D01*
X33990838Y-56148048D01*
X33975548Y-56179046D01*
X33962983Y-56219274D01*
X33952875Y-56271728D01*
X33944957Y-56339402D01*
X33938962Y-56425291D01*
X33934624Y-56532390D01*
X33931676Y-56663693D01*
X33929851Y-56822196D01*
X33928882Y-57010892D01*
X33928502Y-57232778D01*
X33928445Y-57490847D01*
X33928444Y-57788095D01*
X33928439Y-57808857D01*
X33928317Y-58117606D01*
X33927967Y-58387111D01*
X33927181Y-58620496D01*
X33925749Y-58820886D01*
X33923461Y-58991404D01*
X33920106Y-59135177D01*
X33915476Y-59255327D01*
X33909359Y-59354979D01*
X33901548Y-59437259D01*
X33891831Y-59505289D01*
X33879998Y-59562195D01*
X33865841Y-59611102D01*
X33849149Y-59655132D01*
X33829712Y-59697412D01*
X33807320Y-59741065D01*
X33797424Y-59759734D01*
X33688092Y-59921728D01*
X33547676Y-60060588D01*
X33383329Y-60171301D01*
X33202204Y-60248855D01*
X33049658Y-60283708D01*
X33001868Y-60287349D01*
X32915971Y-60290587D01*
X32796182Y-60293422D01*
X32646723Y-60295858D01*
X32471810Y-60297896D01*
X32275662Y-60299540D01*
X32062498Y-60300790D01*
X31836537Y-60301649D01*
X31601997Y-60302120D01*
X31363097Y-60302203D01*
X31124055Y-60301903D01*
X30889089Y-60301220D01*
X30662419Y-60300158D01*
X30448263Y-60298717D01*
X30250839Y-60296901D01*
X30074366Y-60294711D01*
X29923063Y-60292150D01*
X29801147Y-60289219D01*
X29712838Y-60285922D01*
X29662355Y-60282260D01*
X29660166Y-60281964D01*
X29516931Y-60245593D01*
X29366970Y-60180379D01*
X29225089Y-60093967D01*
X29109835Y-59997772D01*
X29009363Y-59876286D01*
X28922314Y-59731144D01*
X28856762Y-59577844D01*
X28823099Y-59447440D01*
X28818986Y-59400376D01*
X28815323Y-59315368D01*
X28812108Y-59196562D01*
X28809339Y-59048108D01*
X28807013Y-58874153D01*
X28805128Y-58678845D01*
X28803681Y-58466334D01*
X28802670Y-58240766D01*
X28802092Y-58006291D01*
X28801944Y-57767056D01*
X28802225Y-57527209D01*
X28802932Y-57290899D01*
X28804061Y-57062275D01*
X28805612Y-56845483D01*
X28807581Y-56644673D01*
X28809965Y-56463992D01*
X28812763Y-56307589D01*
X28815971Y-56179612D01*
X28819588Y-56084209D01*
X28823611Y-56025528D01*
X28825161Y-56014175D01*
X28880548Y-55824999D01*
X28972200Y-55651132D01*
X29095320Y-55497452D01*
X29245110Y-55368833D01*
X29416771Y-55270153D01*
X29605505Y-55206287D01*
X29624137Y-55202210D01*
X29670224Y-55196943D01*
X29754995Y-55192362D01*
X29878943Y-55188459D01*
X30042561Y-55185226D01*
X30246342Y-55182658D01*
X30490776Y-55180748D01*
X30776359Y-55179487D01*
X31103581Y-55178869D01*
X31271898Y-55178799D01*
X31572254Y-55178829D01*
X31833253Y-55178766D01*
X32057904Y-55178382D01*
X32249219Y-55177450D01*
X32410208Y-55175742D01*
X32543882Y-55173029D01*
X32653251Y-55169085D01*
X32741327Y-55163680D01*
X32811119Y-55156588D01*
X32865639Y-55147581D01*
X32907897Y-55136430D01*
X32940904Y-55122909D01*
X32967670Y-55106788D01*
X32991206Y-55087840D01*
X33014523Y-55065838D01*
X33035626Y-55045324D01*
X33100379Y-54973557D01*
X33147123Y-54895507D01*
X33179674Y-54801279D01*
X33201850Y-54680984D01*
X33212170Y-54587812D01*
X33244113Y-54366793D01*
X33298323Y-54175090D01*
X33378559Y-54003909D01*
X33488580Y-53844454D01*
X33569402Y-53751870D01*
X33720216Y-53614911D01*
X33892969Y-53504634D01*
X34071980Y-53424287D01*
X34137199Y-53401187D01*
X34196548Y-53385667D01*
X34261269Y-53376266D01*
X34342603Y-53371520D01*
X34451791Y-53369970D01*
X34490191Y-53369909D01*
X34609539Y-53370807D01*
G37*
G04 #@! TD.AperFunction*
G04 #@! TA.AperFunction,TestPad*
G36*
X67280152Y-25411616D02*
G01*
X67528551Y-25470471D01*
X67760954Y-25566268D01*
X67973947Y-25696893D01*
X68164117Y-25860229D01*
X68328048Y-26054163D01*
X68462329Y-26276579D01*
X68469026Y-26290085D01*
X68551799Y-26491989D01*
X68603175Y-26700339D01*
X68625718Y-26926842D01*
X68627272Y-27012052D01*
X68617944Y-27216628D01*
X68587396Y-27399647D01*
X68531780Y-27577075D01*
X68447251Y-27764883D01*
X68444712Y-27769892D01*
X68345412Y-27965346D01*
X65067939Y-31248916D01*
X64755863Y-31561715D01*
X64451282Y-31867283D01*
X64155588Y-32164212D01*
X63870171Y-32451095D01*
X63596424Y-32726525D01*
X63335738Y-32989095D01*
X63089503Y-33237397D01*
X62859112Y-33470024D01*
X62645956Y-33685570D01*
X62451427Y-33882626D01*
X62276915Y-34059786D01*
X62123812Y-34215643D01*
X61993509Y-34348790D01*
X61887399Y-34457819D01*
X61806871Y-34541323D01*
X61753319Y-34597895D01*
X61728132Y-34626128D01*
X61726898Y-34627815D01*
X61596433Y-34859564D01*
X61505197Y-35102090D01*
X61453265Y-35351397D01*
X61440711Y-35603490D01*
X61467609Y-35854375D01*
X61534033Y-36100057D01*
X61640059Y-36336541D01*
X61693401Y-36427389D01*
X61718547Y-36458289D01*
X61773767Y-36518907D01*
X61858997Y-36609180D01*
X61974177Y-36729044D01*
X62119243Y-36878436D01*
X62294132Y-37057293D01*
X62498783Y-37265551D01*
X62733133Y-37503147D01*
X62997120Y-37770018D01*
X63290681Y-38066100D01*
X63613753Y-38391330D01*
X63966275Y-38745645D01*
X64348184Y-39128981D01*
X64759417Y-39541276D01*
X65025054Y-39807381D01*
X65336294Y-40119231D01*
X65640075Y-40423909D01*
X65935000Y-40720000D01*
X66219668Y-41006088D01*
X66492682Y-41280758D01*
X66752641Y-41542594D01*
X66998147Y-41790181D01*
X67227800Y-42022104D01*
X67440200Y-42236947D01*
X67633950Y-42433295D01*
X67807649Y-42609732D01*
X67959899Y-42764844D01*
X68089300Y-42897214D01*
X68194452Y-43005427D01*
X68273958Y-43088067D01*
X68326417Y-43143721D01*
X68350431Y-43170971D01*
X68351153Y-43171988D01*
X68444592Y-43333779D01*
X68525527Y-43516563D01*
X68584961Y-43699277D01*
X68595968Y-43745019D01*
X68616747Y-43883057D01*
X68625381Y-44042628D01*
X68622391Y-44210085D01*
X68608297Y-44371785D01*
X68583620Y-44514082D01*
X68563958Y-44584445D01*
X68458692Y-44835508D01*
X68322221Y-45057914D01*
X68154522Y-45251689D01*
X67955571Y-45416864D01*
X67755780Y-45537978D01*
X67571230Y-45621516D01*
X67388901Y-45676268D01*
X67194617Y-45705594D01*
X67017264Y-45713023D01*
X66757837Y-45697012D01*
X66519427Y-45646066D01*
X66297141Y-45558772D01*
X66112959Y-45452094D01*
X66088375Y-45430748D01*
X66035252Y-45380837D01*
X65955007Y-45303759D01*
X65849056Y-45200912D01*
X65718814Y-45073698D01*
X65565697Y-44923513D01*
X65391121Y-44751757D01*
X65196502Y-44559829D01*
X64983254Y-44349129D01*
X64752795Y-44121054D01*
X64506540Y-43877004D01*
X64245904Y-43618377D01*
X63972303Y-43346574D01*
X63687154Y-43062992D01*
X63391871Y-42769031D01*
X63087870Y-42466089D01*
X62776568Y-42155566D01*
X62748623Y-42127676D01*
X62318752Y-41698830D01*
X61918544Y-41299987D01*
X61547876Y-40931022D01*
X61206620Y-40591812D01*
X60894650Y-40282232D01*
X60611841Y-40002158D01*
X60358066Y-39751466D01*
X60133200Y-39530032D01*
X59937116Y-39337732D01*
X59769689Y-39174442D01*
X59630792Y-39040037D01*
X59520300Y-38934393D01*
X59438086Y-38857387D01*
X59384024Y-38808894D01*
X59360634Y-38790333D01*
X59128967Y-38664708D01*
X58886337Y-38578909D01*
X58636409Y-38532995D01*
X58382845Y-38527029D01*
X58129308Y-38561069D01*
X57879462Y-38635178D01*
X57636970Y-38749416D01*
X57616112Y-38761387D01*
X57594215Y-38777210D01*
X57558056Y-38807713D01*
X57506730Y-38853786D01*
X57439331Y-38916321D01*
X57354953Y-38996207D01*
X57252690Y-39094334D01*
X57131637Y-39211593D01*
X56990888Y-39348874D01*
X56829537Y-39507068D01*
X56646679Y-39687065D01*
X56441407Y-39889756D01*
X56212816Y-40116030D01*
X55960001Y-40366777D01*
X55682055Y-40642889D01*
X55378072Y-40945256D01*
X55047148Y-41274767D01*
X54688376Y-41632314D01*
X54300851Y-42018787D01*
X54200750Y-42118652D01*
X53824325Y-42494254D01*
X53476685Y-42841156D01*
X53156574Y-43160535D01*
X52862734Y-43453565D01*
X52593908Y-43721424D01*
X52348840Y-43965287D01*
X52126273Y-44186330D01*
X51924950Y-44385730D01*
X51743614Y-44564663D01*
X51581009Y-44724304D01*
X51435877Y-44865829D01*
X51306961Y-44990416D01*
X51193005Y-45099239D01*
X51092751Y-45193475D01*
X51004944Y-45274300D01*
X50928325Y-45342891D01*
X50861639Y-45400422D01*
X50803628Y-45448070D01*
X50753036Y-45487012D01*
X50708605Y-45518423D01*
X50669079Y-45543480D01*
X50633200Y-45563358D01*
X50599713Y-45579233D01*
X50567360Y-45592283D01*
X50534884Y-45603682D01*
X50501029Y-45614606D01*
X50464537Y-45626233D01*
X50445559Y-45632460D01*
X50209668Y-45694862D01*
X49979723Y-45720800D01*
X49742471Y-45711580D01*
X49697145Y-45706180D01*
X49458238Y-45654176D01*
X49226524Y-45563113D01*
X49008579Y-45436296D01*
X48810974Y-45277030D01*
X48775810Y-45242913D01*
X48607207Y-45045548D01*
X48474611Y-44829057D01*
X48378712Y-44597719D01*
X48320197Y-44355809D01*
X48299755Y-44107606D01*
X48318074Y-43857386D01*
X48375843Y-43609427D01*
X48473750Y-43368004D01*
X48473970Y-43367562D01*
X48516121Y-43286288D01*
X48557654Y-43211264D01*
X48589978Y-43157978D01*
X48591498Y-43155719D01*
X48610491Y-43134722D01*
X48658053Y-43085155D01*
X48732799Y-43008415D01*
X48833345Y-42905895D01*
X48958306Y-42778993D01*
X49106298Y-42629103D01*
X49275937Y-42457621D01*
X49465838Y-42265943D01*
X49674618Y-42055464D01*
X49900890Y-41827580D01*
X50143272Y-41583686D01*
X50400379Y-41325179D01*
X50670826Y-41053453D01*
X50953230Y-40769904D01*
X51246205Y-40475928D01*
X51548367Y-40172920D01*
X51858332Y-39862276D01*
X51891979Y-39828565D01*
X52203122Y-39516704D01*
X52506802Y-39212025D01*
X52801620Y-38915945D01*
X53086178Y-38629878D01*
X53359077Y-38355240D01*
X53618919Y-38093445D01*
X53864305Y-37845909D01*
X54093837Y-37614048D01*
X54306115Y-37399275D01*
X54499742Y-37203006D01*
X54673318Y-37026657D01*
X54825445Y-36871642D01*
X54954725Y-36739377D01*
X55059759Y-36631277D01*
X55139148Y-36548757D01*
X55191493Y-36493232D01*
X55215397Y-36466117D01*
X55216103Y-36465121D01*
X55343310Y-36238385D01*
X55431840Y-35998820D01*
X55481660Y-35750959D01*
X55492741Y-35499338D01*
X55465053Y-35248489D01*
X55398563Y-35002948D01*
X55293242Y-34767248D01*
X55228336Y-34658089D01*
X55202888Y-34626775D01*
X55148630Y-34566994D01*
X55065469Y-34478648D01*
X54953309Y-34361642D01*
X54812056Y-34215878D01*
X54641614Y-34041261D01*
X54441888Y-33837693D01*
X54212783Y-33605079D01*
X53954205Y-33343321D01*
X53666059Y-33052324D01*
X53348248Y-32731991D01*
X53000679Y-32382225D01*
X52623256Y-32002930D01*
X52215885Y-31594009D01*
X51871791Y-31248916D01*
X51481430Y-30857456D01*
X51120158Y-30494937D01*
X50787039Y-30160405D01*
X50481136Y-29852906D01*
X50201514Y-29571488D01*
X49947235Y-29315198D01*
X49717363Y-29083083D01*
X49510962Y-28874189D01*
X49327097Y-28687565D01*
X49164830Y-28522255D01*
X49023225Y-28377309D01*
X48901346Y-28251772D01*
X48798257Y-28144691D01*
X48713021Y-28055114D01*
X48644703Y-27982087D01*
X48592365Y-27924658D01*
X48555072Y-27881873D01*
X48531887Y-27852780D01*
X48524501Y-27841746D01*
X48416514Y-27615638D01*
X48343690Y-27372201D01*
X48306948Y-27119054D01*
X48307207Y-26863817D01*
X48345384Y-26614107D01*
X48366738Y-26533270D01*
X48418276Y-26394973D01*
X48492736Y-26243739D01*
X48581637Y-26095077D01*
X48676502Y-25964494D01*
X48680148Y-25960052D01*
X48840809Y-25795618D01*
X49031304Y-25651684D01*
X49241613Y-25534374D01*
X49461715Y-25449810D01*
X49554974Y-25425464D01*
X49699311Y-25403248D01*
X49866596Y-25393276D01*
X50039356Y-25395544D01*
X50200122Y-25410050D01*
X50288061Y-25425621D01*
X50445634Y-25471977D01*
X50613400Y-25539973D01*
X50771765Y-25621122D01*
X50846735Y-25667598D01*
X50871328Y-25688956D01*
X50924458Y-25738885D01*
X51004711Y-25815989D01*
X51110674Y-25918872D01*
X51240935Y-26046135D01*
X51394080Y-26196384D01*
X51568696Y-26368220D01*
X51763370Y-26560247D01*
X51976689Y-26771069D01*
X52207239Y-26999288D01*
X52453608Y-27243508D01*
X52714381Y-27502332D01*
X52988147Y-27774364D01*
X53273492Y-28058206D01*
X53569003Y-28352462D01*
X53873266Y-28655735D01*
X54184869Y-28966628D01*
X54221934Y-29003630D01*
X54597073Y-29378174D01*
X54943439Y-29724011D01*
X55262295Y-30042321D01*
X55554897Y-30334284D01*
X55822508Y-30601080D01*
X56066386Y-30843889D01*
X56287790Y-31063891D01*
X56487982Y-31262266D01*
X56668219Y-31440194D01*
X56829762Y-31598856D01*
X56973871Y-31739430D01*
X57101806Y-31863098D01*
X57214825Y-31971038D01*
X57314189Y-32064432D01*
X57401157Y-32144459D01*
X57476989Y-32212299D01*
X57542945Y-32269132D01*
X57600284Y-32316138D01*
X57650266Y-32354498D01*
X57694151Y-32385390D01*
X57733198Y-32409996D01*
X57768667Y-32429495D01*
X57801818Y-32445067D01*
X57833910Y-32457892D01*
X57866203Y-32469151D01*
X57899957Y-32480022D01*
X57936431Y-32491687D01*
X57950375Y-32496276D01*
X58205002Y-32559487D01*
X58460995Y-32580956D01*
X58715455Y-32561094D01*
X58965483Y-32500313D01*
X59208178Y-32399024D01*
X59390909Y-32291908D01*
X59414866Y-32271020D01*
X59467361Y-32221564D01*
X59546980Y-32144939D01*
X59652308Y-32042544D01*
X59781931Y-31915776D01*
X59934433Y-31766036D01*
X60108402Y-31594720D01*
X60302423Y-31403228D01*
X60515080Y-31192958D01*
X60744961Y-30965310D01*
X60990650Y-30721680D01*
X61250733Y-30463469D01*
X61523796Y-30192074D01*
X61808425Y-29908894D01*
X62103204Y-29615328D01*
X62406720Y-29312773D01*
X62717559Y-29002630D01*
X62738031Y-28982193D01*
X63049372Y-28671536D01*
X63353528Y-28368345D01*
X63649082Y-28074021D01*
X63934617Y-27789964D01*
X64208715Y-27517576D01*
X64469959Y-27258257D01*
X64716931Y-27013409D01*
X64948214Y-26784431D01*
X65162391Y-26572726D01*
X65358045Y-26379694D01*
X65533758Y-26206736D01*
X65688113Y-26055253D01*
X65819692Y-25926645D01*
X65927079Y-25822315D01*
X66008855Y-25743661D01*
X66063604Y-25692087D01*
X66089908Y-25668991D01*
X66090574Y-25668526D01*
X66303070Y-25545611D01*
X66520353Y-25460167D01*
X66750631Y-25409749D01*
X67002116Y-25391909D01*
X67019171Y-25391819D01*
X67280152Y-25411616D01*
G37*
G04 #@! TD.AperFunction*
G04 #@! TA.AperFunction,TestPad*
G36*
X34738678Y-60984318D02*
G01*
X34899411Y-61021383D01*
X35050428Y-61082964D01*
X35191025Y-61163576D01*
X35365338Y-61298821D01*
X35508867Y-61458785D01*
X35621090Y-61638532D01*
X35701485Y-61833126D01*
X35749530Y-62037631D01*
X35764703Y-62247113D01*
X35746481Y-62456636D01*
X35694342Y-62661264D01*
X35607764Y-62856062D01*
X35486225Y-63036094D01*
X35399293Y-63132016D01*
X35238547Y-63271670D01*
X35070450Y-63375855D01*
X34886710Y-63448333D01*
X34679033Y-63492864D01*
X34577817Y-63504584D01*
X34448619Y-63517994D01*
X34351246Y-63532840D01*
X34275166Y-63551467D01*
X34209845Y-63576220D01*
X34171189Y-63595117D01*
X34098514Y-63645535D01*
X34027346Y-63714941D01*
X33971585Y-63788570D01*
X33951291Y-63828677D01*
X33946247Y-63863266D01*
X33941838Y-63938726D01*
X33938060Y-64055257D01*
X33934910Y-64213060D01*
X33932386Y-64412336D01*
X33930484Y-64653285D01*
X33929202Y-64936109D01*
X33928537Y-65261008D01*
X33928439Y-65417501D01*
X33928303Y-65725368D01*
X33927925Y-65993985D01*
X33927118Y-66226470D01*
X33925690Y-66425944D01*
X33923454Y-66595524D01*
X33920220Y-66738330D01*
X33915798Y-66857479D01*
X33910000Y-66956092D01*
X33902635Y-67037287D01*
X33893515Y-67104182D01*
X33882450Y-67159897D01*
X33869252Y-67207551D01*
X33853730Y-67250261D01*
X33835695Y-67291147D01*
X33814959Y-67333328D01*
X33811774Y-67339625D01*
X33713363Y-67491363D01*
X33582832Y-67628983D01*
X33430025Y-67744194D01*
X33264786Y-67828706D01*
X33206613Y-67849257D01*
X33181600Y-67856514D01*
X33154379Y-67862839D01*
X33122027Y-67868291D01*
X33081621Y-67872934D01*
X33030236Y-67876829D01*
X32964949Y-67880037D01*
X32882836Y-67882620D01*
X32780973Y-67884640D01*
X32656437Y-67886158D01*
X32506304Y-67887237D01*
X32327650Y-67887937D01*
X32117552Y-67888321D01*
X31873085Y-67888451D01*
X31591326Y-67888387D01*
X31358321Y-67888252D01*
X31046152Y-67887992D01*
X30773462Y-67887612D01*
X30537358Y-67887050D01*
X30334951Y-67886248D01*
X30163350Y-67885144D01*
X30019663Y-67883677D01*
X29901001Y-67881786D01*
X29804472Y-67879412D01*
X29727186Y-67876494D01*
X29666252Y-67872970D01*
X29618779Y-67868781D01*
X29581877Y-67863865D01*
X29552654Y-67858162D01*
X29528221Y-67851612D01*
X29522231Y-67849741D01*
X29359175Y-67782275D01*
X29214921Y-67687635D01*
X29093609Y-67575501D01*
X28969066Y-67420434D01*
X28882173Y-67253332D01*
X28832712Y-67087164D01*
X28826457Y-67035611D01*
X28820862Y-66945891D01*
X28815926Y-66822203D01*
X28811649Y-66668743D01*
X28808031Y-66489709D01*
X28805069Y-66289299D01*
X28802764Y-66071708D01*
X28801115Y-65841136D01*
X28800120Y-65601779D01*
X28799779Y-65357834D01*
X28800092Y-65113500D01*
X28801057Y-64872972D01*
X28802673Y-64640449D01*
X28804941Y-64420128D01*
X28807858Y-64216206D01*
X28811425Y-64032881D01*
X28815640Y-63874349D01*
X28820503Y-63744809D01*
X28826013Y-63648457D01*
X28832168Y-63589491D01*
X28833374Y-63583035D01*
X28892547Y-63400885D01*
X28987057Y-63232313D01*
X29111298Y-63082968D01*
X29259667Y-62958496D01*
X29426557Y-62864548D01*
X29602952Y-62807477D01*
X29648604Y-62802196D01*
X29732212Y-62797601D01*
X29854361Y-62793682D01*
X30015641Y-62790432D01*
X30216637Y-62787842D01*
X30457936Y-62785903D01*
X30740127Y-62784608D01*
X31063796Y-62783947D01*
X31244737Y-62783852D01*
X31590375Y-62783507D01*
X31893904Y-62782526D01*
X32155582Y-62780905D01*
X32375664Y-62778640D01*
X32554406Y-62775729D01*
X32692064Y-62772166D01*
X32788895Y-62767950D01*
X32845154Y-62763075D01*
X32856472Y-62760908D01*
X32940619Y-62720396D01*
X33026208Y-62650751D01*
X33102288Y-62563350D01*
X33157906Y-62469575D01*
X33171857Y-62433193D01*
X33189650Y-62359569D01*
X33205767Y-62263253D01*
X33216977Y-62163894D01*
X33217700Y-62154595D01*
X33252998Y-61923336D01*
X33323998Y-61713691D01*
X33432372Y-61522141D01*
X33579792Y-61345165D01*
X33621594Y-61304065D01*
X33792183Y-61164445D01*
X33971276Y-61063245D01*
X34164272Y-60998513D01*
X34376571Y-60968298D01*
X34553341Y-60967183D01*
X34738678Y-60984318D01*
G37*
G04 #@! TD.AperFunction*
G04 #@! TA.AperFunction,TestPad*
G36*
X40823978Y-53357225D02*
G01*
X41138740Y-53358063D01*
X41412591Y-53359472D01*
X41646258Y-53361461D01*
X41840468Y-53364040D01*
X41995947Y-53367218D01*
X42113424Y-53371005D01*
X42193624Y-53375412D01*
X42237275Y-53380446D01*
X42237314Y-53380454D01*
X42415300Y-53438555D01*
X42581246Y-53532688D01*
X42729448Y-53656994D01*
X42854199Y-53805612D01*
X42949797Y-53972682D01*
X43010537Y-54152344D01*
X43016442Y-54180824D01*
X43020740Y-54225102D01*
X43024575Y-54307429D01*
X43027949Y-54423718D01*
X43030864Y-54569884D01*
X43033323Y-54741839D01*
X43035329Y-54935498D01*
X43036884Y-55146774D01*
X43037991Y-55371583D01*
X43038652Y-55605837D01*
X43038870Y-55845450D01*
X43038648Y-56086337D01*
X43037988Y-56324411D01*
X43036892Y-56555586D01*
X43035364Y-56775777D01*
X43033405Y-56980896D01*
X43031019Y-57166859D01*
X43028208Y-57329578D01*
X43024975Y-57464968D01*
X43021322Y-57568943D01*
X43017251Y-57637417D01*
X43014245Y-57661618D01*
X42953775Y-57848312D01*
X42857410Y-58020330D01*
X42730442Y-58171858D01*
X42578165Y-58297082D01*
X42405873Y-58390187D01*
X42324039Y-58419804D01*
X42296644Y-58427851D01*
X42268159Y-58434818D01*
X42235471Y-58440786D01*
X42195469Y-58445834D01*
X42145041Y-58450041D01*
X42081076Y-58453488D01*
X42000463Y-58456254D01*
X41900090Y-58458419D01*
X41776846Y-58460063D01*
X41627618Y-58461264D01*
X41449296Y-58462104D01*
X41238768Y-58462661D01*
X40992922Y-58463016D01*
X40708647Y-58463248D01*
X40626117Y-58463299D01*
X40323688Y-58463485D01*
X40060618Y-58463780D01*
X39833896Y-58464373D01*
X39640513Y-58465447D01*
X39477458Y-58467190D01*
X39341722Y-58469788D01*
X39230294Y-58473426D01*
X39140165Y-58478290D01*
X39068324Y-58484568D01*
X39011761Y-58492444D01*
X38967467Y-58502105D01*
X38932431Y-58513737D01*
X38903643Y-58527525D01*
X38878094Y-58543657D01*
X38852773Y-58562318D01*
X38837687Y-58573854D01*
X38756036Y-58655406D01*
X38695539Y-58761631D01*
X38654104Y-58897511D01*
X38629643Y-59068027D01*
X38629447Y-59070273D01*
X38601005Y-59276262D01*
X38551768Y-59455607D01*
X38477671Y-59620589D01*
X38410680Y-59731339D01*
X38268493Y-59908243D01*
X38099730Y-60054338D01*
X37908864Y-60167642D01*
X37700366Y-60246176D01*
X37478710Y-60287958D01*
X37248367Y-60291007D01*
X37166199Y-60282514D01*
X36955122Y-60233495D01*
X36753950Y-60146770D01*
X36569017Y-60026848D01*
X36406657Y-59878242D01*
X36273207Y-59705463D01*
X36216747Y-59606389D01*
X36152848Y-59464612D01*
X36111367Y-59331045D01*
X36088801Y-59190017D01*
X36081642Y-59025859D01*
X36081657Y-59002569D01*
X36097238Y-58784027D01*
X36143823Y-58588838D01*
X36224396Y-58409956D01*
X36341944Y-58240336D01*
X36458952Y-58112184D01*
X36609785Y-57979765D01*
X36766690Y-57879798D01*
X36938134Y-57808581D01*
X37132585Y-57762413D01*
X37307597Y-57741253D01*
X37472142Y-57720954D01*
X37602301Y-57687917D01*
X37704944Y-57639058D01*
X37786940Y-57571291D01*
X37842610Y-57500908D01*
X37911459Y-57398365D01*
X37912113Y-55901968D01*
X37912519Y-55640391D01*
X37913474Y-55390245D01*
X37914931Y-55155175D01*
X37916844Y-54938828D01*
X37919164Y-54744849D01*
X37921846Y-54576885D01*
X37924843Y-54438582D01*
X37928108Y-54333584D01*
X37931595Y-54265539D01*
X37933353Y-54246915D01*
X37979412Y-54049511D01*
X38061994Y-53867861D01*
X38177015Y-53706622D01*
X38320388Y-53570455D01*
X38488027Y-53464017D01*
X38675847Y-53391968D01*
X38685427Y-53389422D01*
X38713536Y-53383336D01*
X38749887Y-53378041D01*
X38797360Y-53373484D01*
X38858834Y-53369612D01*
X38937188Y-53366373D01*
X39035303Y-53363715D01*
X39156058Y-53361584D01*
X39302331Y-53359929D01*
X39477003Y-53358697D01*
X39682952Y-53357836D01*
X39923059Y-53357292D01*
X40200203Y-53357014D01*
X40467578Y-53356948D01*
X40823978Y-53357225D01*
G37*
G04 #@! TD.AperFunction*
G04 #@! TA.AperFunction,TestPad*
G36*
X40782131Y-60962153D02*
G01*
X41052970Y-60962299D01*
X41287320Y-60962624D01*
X41488121Y-60963193D01*
X41658311Y-60964073D01*
X41800831Y-60965330D01*
X41918621Y-60967029D01*
X42014619Y-60969238D01*
X42091766Y-60972022D01*
X42153002Y-60975448D01*
X42201265Y-60979581D01*
X42239496Y-60984487D01*
X42270635Y-60990234D01*
X42297620Y-60996887D01*
X42320862Y-61003728D01*
X42500233Y-61080493D01*
X42662356Y-61191740D01*
X42801784Y-61331507D01*
X42913073Y-61493835D01*
X42990775Y-61672764D01*
X43014558Y-61762870D01*
X43018868Y-61804942D01*
X43022763Y-61885293D01*
X43026241Y-61999837D01*
X43029299Y-62144486D01*
X43031936Y-62315153D01*
X43034149Y-62507749D01*
X43035936Y-62718190D01*
X43037295Y-62942386D01*
X43038223Y-63176251D01*
X43038719Y-63415698D01*
X43038780Y-63656639D01*
X43038404Y-63894987D01*
X43037588Y-64126656D01*
X43036332Y-64347556D01*
X43034631Y-64553603D01*
X43032485Y-64740708D01*
X43029890Y-64904783D01*
X43026845Y-65041743D01*
X43023348Y-65147499D01*
X43019395Y-65217964D01*
X43016442Y-65243664D01*
X42960564Y-65428295D01*
X42868214Y-65599922D01*
X42744630Y-65752988D01*
X42595048Y-65881939D01*
X42424707Y-65981217D01*
X42267625Y-66038091D01*
X42238525Y-66043827D01*
X42195459Y-66048800D01*
X42135683Y-66053059D01*
X42056453Y-66056653D01*
X41955025Y-66059630D01*
X41828653Y-66062039D01*
X41674594Y-66063928D01*
X41490103Y-66065345D01*
X41272436Y-66066340D01*
X41018848Y-66066960D01*
X40726595Y-66067254D01*
X40614918Y-66067289D01*
X40285981Y-66067585D01*
X39997908Y-66068376D01*
X39749199Y-66069683D01*
X39538350Y-66071530D01*
X39363861Y-66073938D01*
X39224231Y-66076931D01*
X39117957Y-66080531D01*
X39043538Y-66084760D01*
X38999472Y-66089642D01*
X38990213Y-66091720D01*
X38868364Y-66148642D01*
X38771310Y-66239158D01*
X38698826Y-66363630D01*
X38650685Y-66522418D01*
X38630120Y-66667666D01*
X38610950Y-66828516D01*
X38581262Y-66964664D01*
X38536153Y-67093400D01*
X38470721Y-67232018D01*
X38469393Y-67234582D01*
X38361480Y-67400799D01*
X38220394Y-67553401D01*
X38054891Y-67684887D01*
X37873723Y-67787755D01*
X37778480Y-67826653D01*
X37674604Y-67853395D01*
X37544150Y-67872279D01*
X37400649Y-67882738D01*
X37257634Y-67884208D01*
X37128636Y-67876122D01*
X37027691Y-67858055D01*
X36817201Y-67777871D01*
X36623257Y-67662312D01*
X36450881Y-67516224D01*
X36305094Y-67344447D01*
X36190916Y-67151824D01*
X36126666Y-66989058D01*
X36092525Y-66831751D01*
X36078490Y-66654091D01*
X36084569Y-66473023D01*
X36110767Y-66305490D01*
X36126400Y-66247607D01*
X36211735Y-66041037D01*
X36331783Y-65851771D01*
X36481486Y-65685087D01*
X36655785Y-65546259D01*
X36849622Y-65440564D01*
X36930193Y-65409195D01*
X37005301Y-65388900D01*
X37106737Y-65369175D01*
X37218525Y-65352880D01*
X37283217Y-65346002D01*
X37430753Y-65328021D01*
X37549536Y-65303441D01*
X37616384Y-65281053D01*
X37692545Y-65237654D01*
X37769686Y-65176393D01*
X37837281Y-65107539D01*
X37884806Y-65041362D01*
X37900034Y-65004280D01*
X37901927Y-64975590D01*
X37903883Y-64907955D01*
X37905867Y-64804797D01*
X37907841Y-64669540D01*
X37909770Y-64505607D01*
X37911616Y-64316420D01*
X37913342Y-64105403D01*
X37914913Y-63875979D01*
X37916292Y-63631570D01*
X37917436Y-63377131D01*
X37918669Y-63078767D01*
X37919912Y-62819736D01*
X37921244Y-62597001D01*
X37922745Y-62407526D01*
X37924494Y-62248276D01*
X37926571Y-62116214D01*
X37929054Y-62008304D01*
X37932023Y-61921511D01*
X37935557Y-61852798D01*
X37939737Y-61799129D01*
X37944640Y-61757468D01*
X37950347Y-61724779D01*
X37956937Y-61698026D01*
X37961730Y-61682386D01*
X38046433Y-61488387D01*
X38164279Y-61318572D01*
X38311850Y-61176414D01*
X38485729Y-61065381D01*
X38628165Y-61005687D01*
X38652507Y-60997816D01*
X38677624Y-60990955D01*
X38706446Y-60985034D01*
X38741903Y-60979983D01*
X38786925Y-60975735D01*
X38844441Y-60972219D01*
X38917381Y-60969367D01*
X39008675Y-60967109D01*
X39121254Y-60965375D01*
X39258046Y-60964097D01*
X39421982Y-60963206D01*
X39615992Y-60962632D01*
X39843005Y-60962305D01*
X40105952Y-60962158D01*
X40407762Y-60962119D01*
X40471862Y-60962119D01*
X40782131Y-60962153D01*
G37*
G04 #@! TD.AperFunction*
G04 #@! TD*
G04 #@! TO.P,REF\u002A\u002A,1*
G04 #@! TO.N,N/C*
X53975000Y-90805000D03*
G04 #@! TD*
G04 #@! TO.P,REF\u002A\u002A,1*
G04 #@! TO.N,N/C*
X51435000Y-86995000D03*
G04 #@! TD*
D25*
G04 #@! TO.P,D3,1,K*
G04 #@! TO.N,Net-(D3-Pad1)*
X56896000Y-58420000D03*
G04 #@! TO.P,D3,2,A*
G04 #@! TO.N,Net-(CON1-Pad3)*
X58674000Y-58420000D03*
G04 #@! TD*
D12*
G04 #@! TO.P,REF\u002A\u002A,1*
G04 #@! TO.N,N/C*
X61595000Y-84455000D03*
G04 #@! TD*
G04 #@! TO.P,REF\u002A\u002A,1*
G04 #@! TO.N,N/C*
X64135000Y-74295000D03*
G04 #@! TD*
G04 #@! TO.P,REF\u002A\u002A,1*
G04 #@! TO.N,N/C*
X48895000Y-80645000D03*
G04 #@! TD*
G04 #@! TO.P,REF\u002A\u002A,1*
G04 #@! TO.N,N/C*
X61595000Y-79375000D03*
G04 #@! TD*
G04 #@! TO.P,REF\u002A\u002A,1*
G04 #@! TO.N,N/C*
X48895000Y-74295000D03*
G04 #@! TD*
G04 #@! TO.P,REF\u002A\u002A,1*
G04 #@! TO.N,N/C*
X62865000Y-79375000D03*
G04 #@! TD*
G04 #@! TO.P,REF\u002A\u002A,1*
G04 #@! TO.N,N/C*
X48895000Y-75565000D03*
G04 #@! TD*
G04 #@! TO.P,REF\u002A\u002A,1*
G04 #@! TO.N,N/C*
X50165000Y-71755000D03*
G04 #@! TD*
G04 #@! TO.P,REF\u002A\u002A,1*
G04 #@! TO.N,N/C*
X53975000Y-89535000D03*
G04 #@! TD*
D26*
G04 #@! TO.P,C1,1*
G04 #@! TO.N,GND*
X60960000Y-64566800D03*
G04 #@! TO.P,C1,2*
G04 #@! TO.N,+BATT*
X60960000Y-61010800D03*
G04 #@! TD*
D12*
G04 #@! TO.P,REF\u002A\u002A,1*
G04 #@! TO.N,N/C*
X55245000Y-88265000D03*
G04 #@! TD*
G04 #@! TO.P,REF\u002A\u002A,1*
G04 #@! TO.N,N/C*
X66675000Y-80645000D03*
G04 #@! TD*
D16*
G04 #@! TO.P,REF\u002A\u002A,1*
G04 #@! TO.N,N/C*
X20955000Y-35560000D03*
G04 #@! TD*
D12*
G04 #@! TO.P,REF\u002A\u002A,1*
G04 #@! TO.N,N/C*
X52705000Y-75565000D03*
G04 #@! TD*
G04 #@! TO.P,REF\u002A\u002A,1*
G04 #@! TO.N,N/C*
X53975000Y-80645000D03*
G04 #@! TD*
G04 #@! TO.P,REF\u002A\u002A,1*
G04 #@! TO.N,N/C*
X57785000Y-79375000D03*
G04 #@! TD*
D10*
G04 #@! TO.P,REF\u002A\u002A,1*
G04 #@! TO.N,N/C*
X11430000Y-90170000D03*
G04 #@! TD*
D12*
G04 #@! TO.P,REF\u002A\u002A,1*
G04 #@! TO.N,N/C*
X51435000Y-83185000D03*
G04 #@! TD*
G04 #@! TO.P,REF\u002A\u002A,1*
G04 #@! TO.N,N/C*
X57785000Y-80645000D03*
G04 #@! TD*
D11*
G04 #@! TO.P,PG3,1,P1*
G04 #@! TO.N,GND*
X50546000Y-67132200D03*
G04 #@! TD*
D12*
G04 #@! TO.P,REF\u002A\u002A,1*
G04 #@! TO.N,N/C*
X60325000Y-89535000D03*
G04 #@! TD*
G04 #@! TO.P,REF\u002A\u002A,1*
G04 #@! TO.N,N/C*
X52705000Y-74295000D03*
G04 #@! TD*
G04 #@! TO.P,REF\u002A\u002A,1*
G04 #@! TO.N,N/C*
X55245000Y-79375000D03*
G04 #@! TD*
D16*
G04 #@! TO.P,REF\u002A\u002A,1*
G04 #@! TO.N,N/C*
X17145000Y-35560000D03*
G04 #@! TD*
D12*
G04 #@! TO.P,REF\u002A\u002A,1*
G04 #@! TO.N,N/C*
X66675000Y-79375000D03*
G04 #@! TD*
G04 #@! TO.P,REF\u002A\u002A,1*
G04 #@! TO.N,N/C*
X50165000Y-73025000D03*
G04 #@! TD*
G04 #@! TO.P,REF\u002A\u002A,1*
G04 #@! TO.N,N/C*
X59055000Y-85725000D03*
G04 #@! TD*
D10*
G04 #@! TO.P,REF\u002A\u002A,1*
G04 #@! TO.N,N/C*
X6350000Y-74930000D03*
G04 #@! TD*
D27*
G04 #@! TO.P,IC1,1,PB5(~RESET~/dW/ADC0/PCINT5)*
G04 #@! TO.N,Net-(CON1-Pad5)*
X63500000Y-66438800D03*
G04 #@! TO.P,IC1,2,PB3(XTAL1/CLKI/OC1B/ADC3/PCINT3)*
G04 #@! TO.N,Net-(D4-Pad2)*
X64770000Y-66438800D03*
G04 #@! TO.P,IC1,3,PB4(XTAL2/CLKO/OC1B/ADC2/PCINT4)*
G04 #@! TO.N,Net-(D5-Pad2)*
X66040000Y-66438800D03*
G04 #@! TO.P,IC1,4,GND*
G04 #@! TO.N,GND*
X67310000Y-66438800D03*
G04 #@! TO.P,IC1,5,PB0(MOSI/DI/SDA/AIN0/OC0A/OC1A/AREF/PCINT0)*
G04 #@! TO.N,Net-(CON1-Pad4)*
X67310000Y-59138800D03*
G04 #@! TO.P,IC1,6,PB1(MISO/DO/AIN1/OC0B/OC1A/PCINT1)*
G04 #@! TO.N,Net-(CON1-Pad1)*
X66040000Y-59138800D03*
G04 #@! TO.P,IC1,7,PB2(SCK/USCK/SCL/T0/INT0/ADC1/PCINT2)*
G04 #@! TO.N,Net-(CON1-Pad3)*
X64770000Y-59138800D03*
G04 #@! TO.P,IC1,8,VCC*
G04 #@! TO.N,+BATT*
X63500000Y-59138800D03*
G04 #@! TD*
D12*
G04 #@! TO.P,REF\u002A\u002A,1*
G04 #@! TO.N,N/C*
X52705000Y-89535000D03*
G04 #@! TD*
G04 #@! TO.P,REF\u002A\u002A,1*
G04 #@! TO.N,N/C*
X57785000Y-86995000D03*
G04 #@! TD*
G04 #@! TO.P,REF\u002A\u002A,1*
G04 #@! TO.N,N/C*
X60325000Y-74295000D03*
G04 #@! TD*
G04 #@! TO.P,REF\u002A\u002A,1*
G04 #@! TO.N,N/C*
X59055000Y-86995000D03*
G04 #@! TD*
D10*
G04 #@! TO.P,REF\u002A\u002A,1*
G04 #@! TO.N,N/C*
X19050000Y-72390000D03*
G04 #@! TD*
D12*
G04 #@! TO.P,REF\u002A\u002A,1*
G04 #@! TO.N,N/C*
X57785000Y-71755000D03*
G04 #@! TD*
G04 #@! TO.P,REF\u002A\u002A,1*
G04 #@! TO.N,N/C*
X51435000Y-88265000D03*
G04 #@! TD*
G04 #@! TO.P,REF\u002A\u002A,1*
G04 #@! TO.N,N/C*
X55245000Y-83185000D03*
G04 #@! TD*
G04 #@! TO.P,REF\u002A\u002A,1*
G04 #@! TO.N,N/C*
X64135000Y-84455000D03*
G04 #@! TD*
D10*
G04 #@! TO.P,REF\u002A\u002A,1*
G04 #@! TO.N,N/C*
X3810000Y-87630000D03*
G04 #@! TD*
D12*
G04 #@! TO.P,REF\u002A\u002A,1*
G04 #@! TO.N,N/C*
X64135000Y-86995000D03*
G04 #@! TD*
G04 #@! TO.P,REF\u002A\u002A,1*
G04 #@! TO.N,N/C*
X56515000Y-79375000D03*
G04 #@! TD*
G04 #@! TO.P,REF\u002A\u002A,1*
G04 #@! TO.N,N/C*
X57785000Y-73025000D03*
G04 #@! TD*
G04 #@! TO.P,REF\u002A\u002A,1*
G04 #@! TO.N,N/C*
X50165000Y-84455000D03*
G04 #@! TD*
G04 #@! TO.P,REF\u002A\u002A,1*
G04 #@! TO.N,N/C*
X52705000Y-81915000D03*
G04 #@! TD*
D16*
G04 #@! TO.P,REF\u002A\u002A,1*
G04 #@! TO.N,N/C*
X8255000Y-35560000D03*
G04 #@! TD*
D12*
G04 #@! TO.P,REF\u002A\u002A,1*
G04 #@! TO.N,N/C*
X64135000Y-78105000D03*
G04 #@! TD*
G04 #@! TO.P,REF\u002A\u002A,1*
G04 #@! TO.N,N/C*
X67945000Y-85725000D03*
G04 #@! TD*
D11*
G04 #@! TO.P,PG4,1,P1*
G04 #@! TO.N,GND*
X50546000Y-49707800D03*
G04 #@! TD*
D12*
G04 #@! TO.P,REF\u002A\u002A,1*
G04 #@! TO.N,N/C*
X48895000Y-71755000D03*
G04 #@! TD*
G04 #@! TO.P,REF\u002A\u002A,1*
G04 #@! TO.N,N/C*
X66675000Y-78105000D03*
G04 #@! TD*
G04 #@! TO.P,REF\u002A\u002A,1*
G04 #@! TO.N,N/C*
X65405000Y-84455000D03*
G04 #@! TD*
D10*
G04 #@! TO.P,REF\u002A\u002A,1*
G04 #@! TO.N,N/C*
X11430000Y-80010000D03*
G04 #@! TD*
D28*
G04 #@! TO.N,+BATT*
X66018894Y-48689996D03*
X63500000Y-61112400D03*
G04 #@! TO.N,GND*
X60960000Y-62788800D03*
X66500000Y-62625000D03*
X66598800Y-53797200D03*
X54051200Y-45085000D03*
G04 #@! TD*
D29*
G04 #@! TO.N,+BATT*
X66979800Y-49650902D02*
X66018894Y-48689996D01*
X60960000Y-59766200D02*
X61587400Y-59138800D01*
X63500000Y-59138800D02*
X63500000Y-61112400D01*
X61587400Y-59138800D02*
X63500000Y-59138800D01*
X66979800Y-49987200D02*
X66979800Y-49650902D01*
X60960000Y-61010800D02*
X60960000Y-59766200D01*
D30*
G04 #@! TO.N,GND*
X50571400Y-54000400D02*
X52705000Y-54000400D01*
X50546000Y-62865000D02*
X50546000Y-67132200D01*
X50546000Y-58420000D02*
X50546000Y-62407800D01*
X60960000Y-64566800D02*
X60960000Y-62788800D01*
X50546000Y-62407800D02*
X50546000Y-62865000D01*
D29*
X50571400Y-54000400D02*
X50546000Y-53975000D01*
D30*
X50546000Y-58420000D02*
X52578000Y-58420000D01*
X66598800Y-53797200D02*
X66598800Y-54686200D01*
X50546000Y-67132200D02*
X52482800Y-67132200D01*
X52806600Y-49580800D02*
X52806600Y-46329600D01*
X67310000Y-63435000D02*
X66500000Y-62625000D01*
X52806600Y-49707800D02*
X52806600Y-49580800D01*
X50546000Y-62865000D02*
X52586000Y-62865000D01*
X52806600Y-46329600D02*
X54051200Y-45085000D01*
X50546000Y-49707800D02*
X52806600Y-49707800D01*
X50546000Y-53975000D02*
X50546000Y-58420000D01*
X67310000Y-66438800D02*
X67310000Y-63435000D01*
X50546000Y-49707800D02*
X50546000Y-53975000D01*
X66598800Y-54686200D02*
X66979800Y-55067200D01*
D29*
G04 #@! TO.N,Net-(CON1-Pad5)*
X63500000Y-66438800D02*
X63500000Y-64211200D01*
X66666601Y-61044599D02*
X66666601Y-57294001D01*
X63500000Y-64211200D02*
X66666601Y-61044599D01*
X66666601Y-57294001D02*
X64439800Y-55067200D01*
G04 #@! TO.N,Net-(CON1-Pad1)*
X65405000Y-57429400D02*
X63220600Y-57429400D01*
X65735200Y-51852826D02*
X64439800Y-50557426D01*
X63220600Y-57429400D02*
X61595000Y-55803800D01*
X65735200Y-53086000D02*
X65735200Y-51852826D01*
X59918600Y-54000400D02*
X61569600Y-54000400D01*
X61569600Y-54000400D02*
X61595000Y-53975000D01*
X65049400Y-53771800D02*
X65735200Y-53086000D01*
X66040000Y-58064400D02*
X65405000Y-57429400D01*
X61798200Y-53771800D02*
X65049400Y-53771800D01*
X61595000Y-53975000D02*
X61798200Y-53771800D01*
X66040000Y-58420000D02*
X66040000Y-58064400D01*
X64439800Y-50557426D02*
X64439800Y-49987200D01*
X61595000Y-55803800D02*
X61595000Y-53975000D01*
G04 #@! TO.N,Net-(D1-Pad1)*
X58039000Y-49707800D02*
X56235600Y-49707800D01*
G04 #@! TO.N,Net-(D2-Pad1)*
X54991000Y-54000400D02*
X57505600Y-54000400D01*
G04 #@! TO.N,Net-(D3-Pad1)*
X54483000Y-58420000D02*
X56896000Y-58420000D01*
G04 #@! TO.N,Net-(D4-Pad1)*
X56319800Y-62865000D02*
X56345200Y-62839600D01*
X53486000Y-62865000D02*
X56319800Y-62865000D01*
G04 #@! TO.N,Net-(D5-Pad1)*
X55580000Y-67132200D02*
X53282800Y-67132200D01*
G04 #@! TO.N,Net-(CON1-Pad3)*
X63423800Y-52527200D02*
X62865000Y-53086000D01*
X64770000Y-58613800D02*
X63988811Y-57832611D01*
X63988811Y-57832611D02*
X60912389Y-57832611D01*
X59055000Y-53086000D02*
X58724800Y-53416200D01*
X62865000Y-53086000D02*
X59055000Y-53086000D01*
X64770000Y-59850000D02*
X64770000Y-59325000D01*
X58674000Y-58420000D02*
X60325000Y-58420000D01*
X60912389Y-57832611D02*
X60325000Y-58420000D01*
X64439800Y-52527200D02*
X63423800Y-52527200D01*
X58724800Y-53416200D02*
X58724800Y-56083200D01*
X60325000Y-57683400D02*
X60325000Y-58420000D01*
X64770000Y-59138800D02*
X64770000Y-58613800D01*
X58724800Y-56083200D02*
X60325000Y-57683400D01*
G04 #@! TO.N,Net-(CON1-Pad4)*
X67310000Y-59138800D02*
X67310000Y-57367174D01*
X67310000Y-57367174D02*
X65684400Y-55741574D01*
X65684400Y-55741574D02*
X65684400Y-53822600D01*
X66979800Y-52527200D02*
X65709800Y-51257200D01*
X65684400Y-53822600D02*
X66979800Y-52527200D01*
X65709800Y-51257200D02*
X65709800Y-49403000D01*
X65709800Y-49403000D02*
X65192399Y-48885599D01*
X63687201Y-48885599D02*
X62865000Y-49707800D01*
X62865000Y-49707800D02*
X61214000Y-49707800D01*
X65192399Y-48885599D02*
X63687201Y-48885599D01*
G04 #@! TO.N,Net-(D4-Pad2)*
X59275000Y-66074604D02*
X59275000Y-63225000D01*
X58394600Y-62839600D02*
X58420000Y-62865000D01*
X62072307Y-66728989D02*
X59929385Y-66728989D01*
X64770000Y-67430000D02*
X64609599Y-67590401D01*
X64609599Y-67590401D02*
X62933719Y-67590401D01*
X59929385Y-66728989D02*
X59275000Y-66074604D01*
X59275000Y-63225000D02*
X58915000Y-62865000D01*
X58915000Y-62865000D02*
X58420000Y-62865000D01*
X62933719Y-67590401D02*
X62072307Y-66728989D01*
X57345200Y-62839600D02*
X58394600Y-62839600D01*
X64770000Y-66438800D02*
X64770000Y-67430000D01*
G04 #@! TO.N,Net-(D5-Pad2)*
X61905292Y-67132200D02*
X62766704Y-67993612D01*
X66040000Y-67675000D02*
X66040000Y-66438800D01*
X65721388Y-67993612D02*
X66040000Y-67675000D01*
X66040000Y-67150000D02*
X66040000Y-67675000D01*
X62766704Y-67993612D02*
X65721388Y-67993612D01*
X57150000Y-67132200D02*
X56180000Y-67132200D01*
X57150000Y-67132200D02*
X61905292Y-67132200D01*
G04 #@! TD*
M02*
